<svg height="512" viewBox="0 0 64 64" width="512" xmlns="http://www.w3.org/2000/svg"><g id="Fill_Outline" data-name="Fill Outline"><g id="Stroke_copy" data-name="Stroke copy"><g><path d="m3 3h38v50h-38z" fill="#84d2f4"/><g fill="#57b7eb"><path d="m41 28.541v-19.082a10 10 0 0 0 0 19.082z"/><path d="m38.446 33.419-6.609 11.448a30.006 30.006 0 0 1 -21.837-28.867v-13h-7v50h38v-17.112z"/></g><g><g><path d="m45.669 41.714h10v12h-10z" fill="#84d2f4" transform="matrix(.866 .5 -.5 .866 30.645 -18.942)"/><g fill="#f9e109"><path d="m31.446 47.008 11.893 3.402 6-10.393-8.893-8.598z"/><path d="m54.6 45.714a6 6 0 0 1 6 6 6 6 0 0 1 -6 6 0 0 0 0 1 0 0v-12a0 0 0 0 1 0 0z" transform="matrix(.866 .5 -.5 .866 33.573 -21.87)"/><path d="m41.126 60.679a2.394 2.394 0 0 1 -.445-3.816l5.256-4.953 4.33 2.5-6.3 5.938a2.394 2.394 0 0 1 -2.841.331z"/></g></g><path d="m33.927 42.711-2.481 4.3 11.893 3.4 5.792-10.033a18.827 18.827 0 0 1 -15.204 2.333z" fill="#fcbc04"/><path d="m55.944 43.831a9.989 9.989 0 0 1 -9.209 4.892l2.6-8.706-6 10.393 8.66 5 6-10.393z" fill="#57b7eb"/><path d="m45.669 45.714h10v4h-10z" fill="#f89c8d" transform="matrix(.866 .5 -.5 .866 30.645 -18.942)"/><path d="m47.34 43.48.82.48-1.17 3.94-1.65-.95z" fill="#f8664f"/><path d="m56 48.48-2 3.47-5.65-3.26a9.951 9.951 0 0 0 4.83-1.84z" fill="#f8664f"/><g fill="#fcbc04"><path d="m58 52a5.982 5.982 0 0 1 -2.209-.425l1.27-4.933-5.061 8.768a6 6 0 0 0 8.2-2.2 5.971 5.971 0 0 0 .7-1.96 5.966 5.966 0 0 1 -2.9.75z"/><path d="m41.681 58.863 1.619-1.524a6.71 6.71 0 0 1 5.693-1.727l1.276-1.2-4.33-2.5-5.256 4.953a2.384 2.384 0 0 0 .262 3.679 2.357 2.357 0 0 1 .736-1.681z"/></g></g><g><circle cx="46" cy="17" fill="#f89c8d" r="10"/><path d="m43 21v-8l8 4z" fill="#f9e109"/><path d="m51 22a9.988 9.988 0 0 1 -9.11-14.11 10 10 0 1 0 13.22 13.22 9.954 9.954 0 0 1 -4.11.89z" fill="#f8664f"/><path d="m43 17.982v3.018l2.011-1a10.068 10.068 0 0 1 -2.011-2.018z" fill="#fcbc04"/></g><g><path d="m8 8h10a4 4 0 0 1 4 4 4 4 0 0 1 -4 4h-6a4 4 0 0 1 -4-4v-4a0 0 0 0 1 0 0z" fill="#f89c8d"/><path d="m21.732 10.591a3.967 3.967 0 0 1 -1.732.409h-6a3.925 3.925 0 0 1 -1.747-.417 4.01 4.01 0 0 1 -2.112-2.583h-2.141v4a4 4 0 0 0 4 4h6a3.974 3.974 0 0 0 3.732-5.409z" fill="#f8664f"/><path d="m13 20h4a4 4 0 0 1 4 4v4a0 0 0 0 1 0 0h-12a0 0 0 0 1 0 0v-4a4 4 0 0 1 4-4z" fill="#f89c8d"/><path d="m17 22-2 2-2-2v-5h4z" fill="#fcbc04"/><path d="m17 19.621v-2.621h-4v5l2 2 2-2a3.969 3.969 0 0 1 -2.662-1.034 4 4 0 0 0 2.662-1.345z" fill="#e59730"/><path d="m11 12h8a0 0 0 0 1 0 0v4a4 4 0 0 1 -4 4 4 4 0 0 1 -4-4v-4a0 0 0 0 1 0 0z" fill="#f9e109"/><path d="m17 19a4 4 0 0 1 -4-4 2 2 0 0 1 2-2h4v-1h-8v4a3.988 3.988 0 0 0 6.707 2.929 4.015 4.015 0 0 1 -.707.071z" fill="#fcbc04"/><path d="m17 25a4.993 4.993 0 0 1 -4.986-4.862 3.991 3.991 0 0 0 -3.014 3.862v4h12v-3z" fill="#f8664f"/><g fill="#cc5144"><path d="m8 12v-4h2v7.46a3.98 3.98 0 0 1 -2-3.46z"/><path d="m12.5 28h-3.5v-4a3.939 3.939 0 0 1 .86-2.47 3.708 3.708 0 0 1 .55-.57 29.818 29.818 0 0 0 2.09 7.04z"/></g></g></g></g><g id="Outline_copy" data-name="Outline copy"><g fill="#39519d"><path d="m27.786 33.347a1 1 0 0 0 -1 1.733l5.2 3a1 1 0 1 0 1-1.733z"/><path d="m34.982 33.883a1 1 0 0 0 .748-1.663l-4.2-4.732a1 1 0 1 0 -1.5 1.327l4.2 4.732a1 1 0 0 0 .752.336z"/><path d="m22.807 40.076a1 1 0 0 0 .779 1.179l6.2 1.268a1 1 0 1 0 .4-1.959l-6.2-1.268a1 1 0 0 0 -1.179.78z"/><path d="m58.5 44.151-8.554-4.938-7.946-7.682v-4.295a10.991 10.991 0 0 0 13.174-16.3 1 1 0 0 0 -1.668 1.105 9.006 9.006 0 1 1 -2.546-2.547 1 1 0 1 0 1.1-1.668 10.93 10.93 0 0 0 -10.06-1.062v-3.764a1 1 0 0 0 -1-1h-38a1 1 0 0 0 -1 1v38a1 1 0 0 0 2 0v-37h36v3.792a10.979 10.979 0 0 0 0 18.416v4.339a.982.982 0 0 0 -.42.372l-9 15.589a1 1 0 0 0 .591 1.461l3.7 1.059a1 1 0 1 0 .551-1.923l-2.469-.705 7.719-13.369 7.41 7.165-5.219 9.039-3.581-1.024a1 1 0 0 0 -.551 1.923l1.269.366v1.5h-36v-7a1 1 0 0 0 -2 0v8a1 1 0 0 0 1 1h38a1 1 0 0 0 1-1v-1.933l.945.27 1.328.767-4.278 4.031a3.395 3.395 0 1 0 4.656 4.941l5.76-5.428 1.088.628a7 7 0 1 0 7-12.125zm-6.866 9.892-6.928-4 1-1.732 6.928 4zm4-6.928-4.58-2.644a1 1 0 0 0 -1 1.732l4.58 2.645-1 1.732-6.928-4 3-5.2 6.928 4zm-12.354 12.505a1.4 1.4 0 1 1 -1.914-2.03l4.715-4.442 2.519 1.452zm16.049-6.907a5 5 0 0 1 -5.913 2.243l1.449-2.51 3.45-5.974a5.008 5.008 0 0 1 1.014 6.241z"/><path d="m43.447 12.105a1 1 0 0 0 -1.447.895v8a1 1 0 0 0 1.447.895l8-4a1 1 0 0 0 0-1.79zm.553 7.277v-4.764l4.764 2.382z"/><path d="m18 7h-10a1 1 0 0 0 -1 1v4a4.982 4.982 0 0 0 3.059 4.585 4.957 4.957 0 0 0 1.231 2.736 4.993 4.993 0 0 0 -3.29 4.679v4a1 1 0 0 0 2 0v-4a3 3 0 0 1 2-2.816v.816a1 1 0 0 0 .293.707l2 2a1 1 0 0 0 1.414 0l2-2a1 1 0 0 0 .293-.707v-.816a3 3 0 0 1 2 2.816v4a1 1 0 0 0 2 0v-4a4.993 4.993 0 0 0 -3.29-4.679 4.957 4.957 0 0 0 1.231-2.736 4.986 4.986 0 0 0 -1.941-9.585zm-3 12a3 3 0 0 1 -3-3v-2a1 1 0 0 1 1-1h4a1 1 0 0 1 1 1v2a3 3 0 0 1 -3 3zm0 3.586-1-1v-.686a5 5 0 0 0 2 0v.687zm5-8.368v-.218a3 3 0 0 0 -3-3h-4a3 3 0 0 0 -3 3v.218a2.972 2.972 0 0 1 -1-2.218v-3h9a3 3 0 0 1 3 3 2.972 2.972 0 0 1 -1 2.218z"/><path d="m21 36h-12a1 1 0 0 0 0 2h12a1 1 0 0 0 0-2z"/><path d="m9 48a1 1 0 0 0 0 2h10a1 1 0 0 0 0-2z"/><path d="m9 42h10a1 1 0 0 0 0-2h-10a1 1 0 0 0 0 2z"/><path d="m22 45a1 1 0 0 0 -1-1h-12a1 1 0 0 0 0 2h12a1 1 0 0 0 1-1z"/><path d="m21 32h-8a1 1 0 0 0 0 2h8a1 1 0 0 0 0-2z"/><path d="m25.414 21.828a1 1 0 0 0 1.414 0 4 4 0 0 0 0-5.656 1 1 0 0 0 -1.414 1.414 2 2 0 0 1 0 2.828 1 1 0 0 0 0 1.414z"/><path d="m28.243 13.343a1 1 0 0 0 0 1.414 6.008 6.008 0 0 1 0 8.486 1 1 0 1 0 1.414 1.414 8.01 8.01 0 0 0 0-11.314 1 1 0 0 0 -1.414 0z"/></g></g></g></svg>