<svg height="512" viewBox="0 0 64 64" width="512" xmlns="http://www.w3.org/2000/svg"><g id="Fill_Outline" data-name="Fill Outline"><g id="Stroke_copy" data-name="Stroke copy"><g><g><g><path d="m36 40h4a0 0 0 0 1 0 0v8a0 0 0 0 1 0 0h-4a4 4 0 0 1 -4-4 4 4 0 0 1 4-4z" fill="#f89c8d" transform="matrix(-1 0 0 -1 72 88)"/><path d="m24 50 8-2v-8l-8-2z" fill="#84d2f4"/><path d="m32.632 54a1.9 1.9 0 0 0 1.8-1.3l1.568-4.7h-4l-1.168 3.5a1.9 1.9 0 0 0 1.8 2.5z" fill="#84d2f4"/><path d="m30.832 51.5 1.168-3.5h4l-.339 1.018a3.992 3.992 0 0 0 -3.573 2.717l-.256.768a1.885 1.885 0 0 0 .049 1.331 1.891 1.891 0 0 1 -1.049-2.334z" fill="#57b7eb"/><path d="m39 46a5 5 0 0 1 -5-5v-1h-2v8h4a3.982 3.982 0 0 0 3.445-2z" fill="#f8664f"/><path d="m30 46a3.219 3.219 0 0 1 -4-3.123v-4.377l-2-.5v12l8-2v-8l-.186-.047z" fill="#57b7eb"/></g><path d="m46 47h8a7 7 0 0 1 7 7v7a0 0 0 0 1 0 0h-22a0 0 0 0 1 0 0v-7a7 7 0 0 1 7-7z" fill="#f89c8d"/><path d="m39 27h14a8 8 0 0 1 8 8 6 6 0 0 1 -6 6h-7a9 9 0 0 1 -9-9v-5a0 0 0 0 1 0 0z" fill="#57b7eb"/><path d="m59 35a2 2 0 0 0 -2-2h-1a9 9 0 0 1 -8.477-6h-8.523v5a9 9 0 0 0 9 9h7a6 6 0 0 0 5.254-3.1 3.977 3.977 0 0 1 -1.254-2.9z" fill="#4891d3"/><path d="m53 58a8 8 0 0 1 -8-8v-1.683a6.951 6.951 0 0 0 7.884-1.317h-6.884a7 7 0 0 0 -7 7v7h22v-3z" fill="#f8664f"/><path d="m47 44h6a0 0 0 0 1 0 0v5a3 3 0 0 1 -3 3 3 3 0 0 1 -3-3v-5a0 0 0 0 1 0 0z" fill="#fcbc04"/><path d="m51 50a2.979 2.979 0 0 1 -2.255-1.041 6.955 6.955 0 0 0 4.255-2.073v-2.886h-6v5a2.993 2.993 0 0 0 5.976.242 2.98 2.98 0 0 1 -1.976.758z" fill="#e59730"/><path d="m50 47a7 7 0 0 1 -7-7v-5h.838a4.387 4.387 0 0 0 4.162-3 10.242 10.242 0 0 0 7.243 3h1.757v5a7 7 0 0 1 -7 7z" fill="#f9e109"/><path d="m55.243 35a10.242 10.242 0 0 1 -7.243-3 4.387 4.387 0 0 1 -4.162 3h-.838v5a7 7 0 0 0 12.846 3.845 7 7 0 0 1 -10.846-5.845v-1.168a4.378 4.378 0 0 0 3-2.832 10.242 10.242 0 0 0 7.243 3h1.757v-2z" fill="#fcbc04"/><path d="m35 61h5l-4-8a2.236 2.236 0 0 0 -3-1 2.236 2.236 0 0 0 -1 3z" fill="#f9e109"/><path d="m33.764 54.528-.764-1.528a2.205 2.205 0 0 1 -.231-.854 2.228 2.228 0 0 0 -.769 2.854l3 6h5l-1.148-2.3a8.087 8.087 0 0 1 -5.088-4.172z" fill="#fcbc04"/></g><g><circle cx="16" cy="17" fill="#f9e109" r="9"/><path d="m21 21a8.99 8.99 0 0 1 -8.349-12.349 9 9 0 1 0 11.7 11.7 8.963 8.963 0 0 1 -3.351.649z" fill="#fcbc04"/><rect fill="#84d2f4" height="4" rx="2" width="16" x="8" y="24"/><rect fill="#84d2f4" height="4" rx="2" width="16" x="8" y="28"/><path d="m10 32h12a0 0 0 0 1 0 0 6 6 0 0 1 -6 6 6 6 0 0 1 -6-6 0 0 0 0 1 0 0z" fill="#f9e109"/><path d="m14 37a3 3 0 0 1 3-3h4.651a5.971 5.971 0 0 0 .349-2h-12a6 6 0 0 0 4 5.651z" fill="#fcbc04"/><g fill="#57b7eb"><path d="m10 24a2 2 0 0 0 0 4h12a2 2 0 0 0 2-2h-12a2 2 0 0 1 -2-2z"/><path d="m10 28a2 2 0 0 0 0 4h12a2 2 0 0 0 2-2h-12a2 2 0 0 1 -2-2z"/></g></g><path d="m13 49.292v-1.292h2l-5-6-5 6h2v1a10 10 0 0 0 10 10h2a10.855 10.855 0 0 1 -6-9.708z" fill="#f9e109"/><path d="m43.426 17.749.646 1.119-1.732 1 7.33 2.7 1.33-7.7-1.732 1-.5-.866a10 10 0 0 0 -13.66-3.661l-1.732 1a10.857 10.857 0 0 1 10.05 5.408z" fill="#f9e109"/><g fill="#fcbc04"><path d="m10 49v-7l-5 6h2v1a10 10 0 0 0 10 10h2c-.038-.019-.072-.045-.11-.065a10 10 0 0 1 -8.89-9.935z"/><path d="m46.706 17.366-4.062-7.035a9.965 9.965 0 0 0 -7.536 1.01l-1.732 1a10.857 10.857 0 0 1 10.05 5.408l.646 1.119-1.732 1 7.33 2.7.356-2.062a7.951 7.951 0 0 1 -3.32-3.14z"/></g></g></g><g id="Outline_copy" data-name="Outline copy"><g fill="#39519d"><path d="m20 43h-3a1 1 0 0 0 0 2h3a1 1 0 0 0 0-2z"/><path d="m19.553 47.105-2 1a1 1 0 0 0 .894 1.79l2-1a1 1 0 1 0 -.894-1.79z"/><path d="m56 55a1 1 0 0 0 -1 1v5a1 1 0 0 0 2 0v-5a1 1 0 0 0 -1-1z"/><path d="m44 55a1 1 0 0 0 -1 1v5a1 1 0 0 0 2 0v-5a1 1 0 0 0 -1-1z"/><path d="m55.169 46.1a7.992 7.992 0 0 0 2.708-4.742 6.987 6.987 0 0 0 4.123-6.358 9.01 9.01 0 0 0 -9-9h-10a1 1 0 0 0 0 2h10a7.009 7.009 0 0 1 7 7 4.988 4.988 0 0 1 -2.378 4.235.982.982 0 0 0 -.622-.235 1 1 0 0 0 -1 1c0 .2-.011.4-.03.593v.01a6 6 0 0 1 -11.97-.603v-4a5.381 5.381 0 0 0 4.313-2.385 11.162 11.162 0 0 0 6.929 2.385h.758a1 1 0 0 0 2 0v-1a1 1 0 0 0 -1-1h-1.758a9.18 9.18 0 0 1 -6.535-2.707 1 1 0 0 0 -1.655.391 3.385 3.385 0 0 1 -3.214 2.316h-.838a1 1 0 0 0 -1 1v2.282a7.977 7.977 0 0 1 -2-5.282v-5a1 1 0 0 0 -2 0v5a9.973 9.973 0 0 0 4 7.975v.025a8 8 0 0 0 4 6.918v2.082a4 4 0 0 0 8 0v-1a6.006 6.006 0 0 1 6 6v7a1 1 0 0 0 2 0v-7a8.006 8.006 0 0 0 -6.831-7.9zm-5.169 4.9a2 2 0 0 1 -2-2v-1.263a7.736 7.736 0 0 0 4 0v1.263a2 2 0 0 1 -2 2z"/><circle cx="53" cy="39" r="1"/><circle cx="47" cy="39" r="1"/><path d="m50 43.826a3.817 3.817 0 0 0 2.707-1.119 1 1 0 0 0 -1.414-1.414 1.831 1.831 0 0 1 -2.586 0 1 1 0 0 0 -1.414 1.414 3.817 3.817 0 0 0 2.707 1.119z"/><path d="m43.3 47.469a1 1 0 0 0 -1.37-.351 8.042 8.042 0 0 0 -3.93 6.882v.764l-1.1-2.211a3.208 3.208 0 0 0 -.978-1.144l.828-2.484a4.99 4.99 0 0 0 -.75-9.925h-3.878l-7.879-1.97a1 1 0 0 0 -1.243.97v5a1 1 0 0 0 2 0v-3.719l6 1.5v6.438l-6 1.5v-1.719a1 1 0 0 0 -2 0v3a1 1 0 0 0 1.243.97l6.232-1.558-.591 1.775a2.869 2.869 0 0 0 .906 3.141 3.23 3.23 0 0 0 .315 1.119l3 6a1 1 0 0 0 1.79-.894l-3-6a1.237 1.237 0 0 1 .552-1.658 1.234 1.234 0 0 1 1.658.552l4 8a1 1 0 0 0 1.79-.894l-.933-1.865a.979.979 0 0 0 .038-.188v-4.5a5.954 5.954 0 0 1 2.952-5.161 1 1 0 0 0 .348-1.37zm-4.3-3.469a3 3 0 0 1 -3 3h-3v-6h3a3 3 0 0 1 3 3zm-6.448 7.1a3.2 3.2 0 0 0 -.7.488l.869-2.588h1.891l-.592 1.777a3.241 3.241 0 0 0 -1.468.328z"/><path d="m7 26a2.981 2.981 0 0 0 .78 2 2.971 2.971 0 0 0 1.274 4.833 6.937 6.937 0 0 0 7.952 6.086 1 1 0 0 0 .547.976l2 1a1 1 0 1 0 .894-1.79l-1.515-.757a7 7 0 0 0 4.068-6.348 1 1 0 0 0 -1-1h-12a1 1 0 0 1 0-2h12a2.995 2.995 0 0 0 1.6-5.528 9.985 9.985 0 0 0 -12.918-14.931 1 1 0 1 0 1.067 1.691 7.987 7.987 0 0 1 9.519 12.768h-2.268v-2.586l1.707-1.707a1 1 0 0 0 .263-.949l-1-4a1 1 0 0 0 -1.677-.465l-2.293 2.293-2.293-2.293a1 1 0 0 0 -1.677.465l-1 4a1 1 0 0 0 .263.949l1.707 1.707v2.586h-2.268a7.952 7.952 0 0 1 -1.5-10.252 1 1 0 1 0 -1.692-1.066 9.939 9.939 0 0 0 .86 11.79 3 3 0 0 0 -1.4 2.528zm13.9 7a5 5 0 0 1 -9.8 0zm1.1-6h-12a1 1 0 0 1 0-2h12a1 1 0 0 1 0 2zm-7.293-7.707-1.6-1.6.435-1.737 1.751 1.751a1 1 0 0 0 1.414 0l1.751-1.751.435 1.737-1.6 1.6a1 1 0 0 0 -.293.707v3h-2v-3a1 1 0 0 0 -.293-.707z"/><circle cx="3" cy="17" r="1"/><circle cx="29" cy="17" r="1"/><circle cx="16" cy="4" r="1"/><circle cx="22.5" cy="5.742" r="1" transform="matrix(.966 -.259 .259 .966 -.719 6.019)"/><path d="m4.242 11.366a1 1 0 1 0 -.366-1.366 1 1 0 0 0 .366 1.366z"/><path d="m26.758 24.366a1 1 0 1 0 -.366-1.366 1 1 0 0 0 .366 1.366z"/><path d="m5.242 24.366a1 1 0 1 0 -1.366-.366 1 1 0 0 0 1.366.366z"/><path d="m27.758 11.366a1 1 0 1 0 -1.366-.366 1 1 0 0 0 1.366.366z"/><circle cx="9.5" cy="5.742" r="1" transform="matrix(.259 -.966 .966 .259 1.495 13.432)"/><path d="m19.447 58.105a9.8 9.8 0 0 1 -5.447-8.813v-.292h1a1 1 0 0 0 .768-1.641l-5-6a1.035 1.035 0 0 0 -1.536 0l-5 6a1 1 0 0 0 .768 1.641h1a11.013 11.013 0 0 0 11 11h2a1 1 0 0 0 .447-1.9zm-11.447-9.105v-1a1 1 0 0 0 -.872-.992l2.872-3.445 2.872 3.445a1 1 0 0 0 -.872.992v1.292a11.782 11.782 0 0 0 3.7 8.614 9.014 9.014 0 0 1 -7.7-8.906z"/><path d="m33.437 13.34a9.828 9.828 0 0 1 9.123 4.909l.146.253-.866.5a1 1 0 0 0 .155 1.8l7.33 2.7a1 1 0 0 0 .345.061.993.993 0 0 0 .5-.133 1 1 0 0 0 .485-.7l1.33-7.695a1 1 0 0 0 -1.485-1.035l-.866.5a11 11 0 0 0 -15.027-4.026l-1.731 1a1 1 0 0 0 .561 1.864zm9-2.031a8.935 8.935 0 0 1 5.463 4.191l.5.866a1 1 0 0 0 1.251.423l-.763 4.42-4.208-1.546a1 1 0 0 0 .258-1.3l-.646-1.119a11.78 11.78 0 0 0 -7.514-5.61 8.923 8.923 0 0 1 5.659-.325z"/></g></g></g></svg>