<svg height="512" viewBox="0 0 64 64" width="512" xmlns="http://www.w3.org/2000/svg"><g id="Fill_Outline" data-name="Fill Outline"><g id="Stroke_copy" data-name="Stroke copy"><g><path d="m25 43h10a4 4 0 0 1 4 4 4 4 0 0 1 -4 4h-6a4 4 0 0 1 -4-4v-4a0 0 0 0 1 0 0z" fill="#84d2f4"/><path d="m37 46h-6a3.992 3.992 0 0 1 -3.859-3h-2.141v4a4 4 0 0 0 4 4h6a3.974 3.974 0 0 0 3.732-5.409 3.967 3.967 0 0 1 -1.732.409z" fill="#57b7eb"/><circle cx="33" cy="23" fill="#f9e109" r="16"/><path d="m40 31a15.983 15.983 0 0 1 -14.851-21.933 15.995 15.995 0 1 0 22.7 19.866 15.921 15.921 0 0 1 -7.849 2.067z" fill="#fcbc04"/><g><path d="m32 18h8v8h-8z" fill="#f89c8d"/><path d="m24 29 8-3v-8l-8-3z" fill="#84d2f4"/><path d="m40 18a4 4 0 0 1 4 4 4 4 0 0 1 -4 4 0 0 0 0 1 0 0v-8a0 0 0 0 1 0 0z" fill="#84d2f4"/><path d="m34.106 34a2.426 2.426 0 0 1 -2.353-3.014l1.247-4.986h5l-1.541 6.163a2.425 2.425 0 0 1 -2.353 1.837z" fill="#84d2f4"/><path d="m30.719 21.084a4.508 4.508 0 0 1 -2.635 2.635 4.469 4.469 0 0 1 -4.084-.478v5.759l8-3v-8l-.11-.041z" fill="#57b7eb"/><path d="m38 23a4 4 0 0 1 -4-4v-1h-2v8h8v-3z" fill="#f8664f"/><g fill="#57b7eb"><path d="m41 20v-1.859a3.977 3.977 0 0 0 -1-.141v8a3.991 3.991 0 0 0 3.863-3.014 2.993 2.993 0 0 1 -2.863-2.986z"/><path d="m32.753 32.986.679-2.714a3 3 0 0 1 2.91-2.272h1.158l.5-2h-5l-1.247 4.986a2.415 2.415 0 0 0 .931 2.54 2.467 2.467 0 0 1 .069-.54z"/><path d="m29.39 26.98-5.39 2.02v-14a15.982 15.982 0 0 0 5.39 11.98z"/><path d="m36.83 30.69-.37 1.47a2.427 2.427 0 0 1 -4.71-1.17l.5-1.99a15.741 15.741 0 0 0 4.58 1.69z"/></g><path d="m26.76 24a16.617 16.617 0 0 0 2.63 2.98l-5.39 2.02v-5.76a4.5 4.5 0 0 0 2.5.77 2.26 2.26 0 0 0 .26-.01z" fill="#4891d3"/><path d="m33.65 29.69a2.245 2.245 0 0 0 -.22.58l-.68 2.72a3.327 3.327 0 0 0 -.07.54 2.423 2.423 0 0 1 -.93-2.54l.5-1.99a13.985 13.985 0 0 0 1.4.69z" fill="#4891d3"/></g><path d="m28 47h8a0 0 0 0 1 0 0v4a4 4 0 0 1 -4 4 4 4 0 0 1 -4-4v-4a0 0 0 0 1 0 0z" fill="#f9e109"/><path d="m30 55h4a4 4 0 0 1 4 4v2a0 0 0 0 1 0 0h-12a0 0 0 0 1 0 0v-2a4 4 0 0 1 4-4z" fill="#84d2f4"/><g><circle cx="55" cy="9" fill="#84d2f4" r="6"/><path d="m57 13a5.992 5.992 0 0 1 -5.119-9.119 6 6 0 1 0 8.238 8.238 5.968 5.968 0 0 1 -3.119.881z" fill="#57b7eb"/><circle cx="55" cy="9" fill="#f9e109" r="2"/><path d="m57 13a2 2 0 0 0 -4 0v1.651a5.905 5.905 0 0 0 4 0z" fill="#f9e109"/><g fill="#fcbc04"><path d="m56 10a1.992 1.992 0 0 1 -1.82-2.82 2 2 0 1 0 2.64 2.64 1.99 1.99 0 0 1 -.82.18z"/><path d="m54.178 11.982a2 2 0 0 0 1.472-.865 1.975 1.975 0 0 0 -.65-.117 2 2 0 0 0 -2 2v1.651a5.905 5.905 0 0 0 4 0v-.651a2.99 2.99 0 0 1 -2.822-2.018z"/><path d="m57 13v1.65a5.889 5.889 0 0 1 -4 0v-1.65a1.956 1.956 0 0 1 .41-1.2 5.9 5.9 0 0 0 3.59 1.2z"/></g><path d="m57 14v.65a5.889 5.889 0 0 1 -4 0v-1.65a1.956 1.956 0 0 1 .41-1.2 5.8 5.8 0 0 0 .95.59 2.988 2.988 0 0 0 2.64 1.61z" fill="#e59730"/></g><g><circle cx="55" cy="43" fill="#84d2f4" r="6"/><path d="m57 47a5.992 5.992 0 0 1 -5.119-9.119 6 6 0 1 0 8.238 8.238 5.968 5.968 0 0 1 -3.119.881z" fill="#57b7eb"/><circle cx="55" cy="43" fill="#f9e109" r="2"/><path d="m57 47a2 2 0 0 0 -4 0v1.651a5.905 5.905 0 0 0 4 0z" fill="#f9e109"/><g fill="#fcbc04"><path d="m56 44a1.992 1.992 0 0 1 -1.82-2.82 2 2 0 1 0 2.64 2.64 1.99 1.99 0 0 1 -.82.18z"/><path d="m54.178 45.982a2 2 0 0 0 1.472-.865 1.975 1.975 0 0 0 -.65-.117 2 2 0 0 0 -2 2v1.651a5.905 5.905 0 0 0 4 0v-.651a2.99 2.99 0 0 1 -2.822-2.018z"/><path d="m57 47v1.65a5.889 5.889 0 0 1 -4 0v-1.65a1.956 1.956 0 0 1 .41-1.2 5.9 5.9 0 0 0 3.59 1.2z"/></g><path d="m57 48v.65a5.889 5.889 0 0 1 -4 0v-1.65a1.956 1.956 0 0 1 .41-1.2 5.8 5.8 0 0 0 .95.59 2.988 2.988 0 0 0 2.64 1.61z" fill="#e59730"/></g><g><circle cx="9" cy="55" fill="#84d2f4" r="6"/><path d="m11 59a5.992 5.992 0 0 1 -5.119-9.119 6 6 0 1 0 8.238 8.238 5.968 5.968 0 0 1 -3.119.881z" fill="#57b7eb"/><circle cx="9" cy="55" fill="#f9e109" r="2"/><path d="m11 59a2 2 0 0 0 -4 0v1.651a5.905 5.905 0 0 0 4 0z" fill="#f9e109"/><g fill="#fcbc04"><path d="m10 56a1.992 1.992 0 0 1 -1.82-2.82 2 2 0 1 0 2.64 2.64 1.99 1.99 0 0 1 -.82.18z"/><path d="m8.178 57.982a2 2 0 0 0 1.472-.865 1.975 1.975 0 0 0 -.65-.117 2 2 0 0 0 -2 2v1.651a5.905 5.905 0 0 0 4 0v-.651a2.99 2.99 0 0 1 -2.822-2.018z"/><path d="m11 59v1.65a5.889 5.889 0 0 1 -4 0v-1.65a1.956 1.956 0 0 1 .41-1.2 5.9 5.9 0 0 0 3.59 1.2z"/></g><path d="m11 60v.65a5.889 5.889 0 0 1 -4 0v-1.65a1.956 1.956 0 0 1 .41-1.2 5.8 5.8 0 0 0 .95.59 2.988 2.988 0 0 0 2.64 1.61z" fill="#e59730"/></g><g><circle cx="9" cy="33" fill="#84d2f4" r="6"/><path d="m11 37a5.992 5.992 0 0 1 -5.119-9.119 6 6 0 1 0 8.238 8.238 5.968 5.968 0 0 1 -3.119.881z" fill="#57b7eb"/><circle cx="9" cy="33" fill="#f9e109" r="2"/><path d="m11 37a2 2 0 0 0 -4 0v1.651a5.905 5.905 0 0 0 4 0z" fill="#f9e109"/><g fill="#fcbc04"><path d="m10 34a1.992 1.992 0 0 1 -1.82-2.82 2 2 0 1 0 2.64 2.64 1.99 1.99 0 0 1 -.82.18z"/><path d="m8.178 35.982a2 2 0 0 0 1.472-.865 1.975 1.975 0 0 0 -.65-.117 2 2 0 0 0 -2 2v1.651a5.905 5.905 0 0 0 4 0v-.651a2.99 2.99 0 0 1 -2.822-2.018z"/><path d="m11 37v1.65a5.889 5.889 0 0 1 -4 0v-1.65a1.956 1.956 0 0 1 .41-1.2 5.9 5.9 0 0 0 3.59 1.2z"/></g><path d="m11 38v.65a5.889 5.889 0 0 1 -4 0v-1.65a1.956 1.956 0 0 1 .41-1.2 5.8 5.8 0 0 0 .95.59 2.988 2.988 0 0 0 2.64 1.61z" fill="#e59730"/></g><g><circle cx="9" cy="9" fill="#84d2f4" r="6"/><path d="m11 13a5.992 5.992 0 0 1 -5.119-9.119 6 6 0 1 0 8.238 8.238 5.968 5.968 0 0 1 -3.119.881z" fill="#57b7eb"/><circle cx="9" cy="9" fill="#f9e109" r="2"/><path d="m11 13a2 2 0 0 0 -4 0v1.651a5.905 5.905 0 0 0 4 0z" fill="#f9e109"/><g fill="#fcbc04"><path d="m10 10a1.992 1.992 0 0 1 -1.82-2.82 2 2 0 1 0 2.64 2.64 1.99 1.99 0 0 1 -.82.18z"/><path d="m8.178 11.982a2 2 0 0 0 1.472-.865 1.975 1.975 0 0 0 -.65-.117 2 2 0 0 0 -2 2v1.651a5.905 5.905 0 0 0 4 0v-.651a2.99 2.99 0 0 1 -2.822-2.018z"/><path d="m11 13v1.65a5.889 5.889 0 0 1 -4 0v-1.65a1.956 1.956 0 0 1 .41-1.2 5.9 5.9 0 0 0 3.59 1.2z"/></g><path d="m11 14v.65a5.889 5.889 0 0 1 -4 0v-1.65a1.956 1.956 0 0 1 .41-1.2 5.8 5.8 0 0 0 .95.59 2.988 2.988 0 0 0 2.64 1.61z" fill="#e59730"/></g><path d="m34 54a4 4 0 0 1 -4-4 2 2 0 0 1 2-2h4v-1h-8v4a3.988 3.988 0 0 0 6.707 2.929 4.015 4.015 0 0 1 -.707.071z" fill="#fcbc04"/><path d="m29.014 55.137a3.991 3.991 0 0 0 -3.014 3.863v2h12v-2h-5a3.993 3.993 0 0 1 -3.986-3.863z" fill="#57b7eb"/></g></g><g id="Outline_copy" data-name="Outline copy"><g fill="#39519d"><path d="m31.407 33.684a3.426 3.426 0 0 0 6.022-1.278l1.351-5.406h1.22a5 5 0 0 0 0-10h-7.818l-7.83-2.937a1 1 0 0 0 -1.352.937v14a1 1 0 0 0 1 1 1.026 1.026 0 0 0 .352-.063l7.319-2.745-.889 3.552a3.408 3.408 0 0 0 .625 2.94zm4.081-1.763a1.425 1.425 0 0 1 -2.765-.692l1.057-4.229h2.939zm7.512-9.921a3.006 3.006 0 0 1 -2 2.829v-5.658a3.006 3.006 0 0 1 2 2.829zm-4 3h-6v-6h6zm-14-8.557 6 2.25v6.614l-6 2.25z"/><path d="m59.979 39.516a1 1 0 0 0 -.471 1.334 4.947 4.947 0 0 1 -1.508 6.126 2.979 2.979 0 0 0 -.78-1.976 3 3 0 1 0 -4.44 0 2.979 2.979 0 0 0 -.78 1.976 4.985 4.985 0 0 1 5.147-8.484 1 1 0 0 0 .864-1.8 6.969 6.969 0 0 0 -7.465.914l-4.329-3.936a16.949 16.949 0 0 0 1.632-18.931l1.851-1.18a6.991 6.991 0 0 0 11.612-7.572 1 1 0 1 0 -1.8.863 4.947 4.947 0 0 1 -1.512 6.126 2.979 2.979 0 0 0 -.78-1.976 3 3 0 1 0 -4.44 0 2.979 2.979 0 0 0 -.78 1.976 4.985 4.985 0 0 1 5.147-8.484 1 1 0 0 0 .864-1.8 6.923 6.923 0 0 0 -3.011-.692 6.986 6.986 0 0 0 -6.376 9.872l-1.845 1.174a17.063 17.063 0 0 0 -6.015-5.159 1 1 0 0 0 -.916 1.779 15.024 15.024 0 0 1 5.781 5.249c.007.012.007.026.015.039s.034.039.05.06a15 15 0 0 1 -12.694 22.986 15.1 15.1 0 0 1 -3.326-.383 1 1 0 0 0 -.442 1.95 17.753 17.753 0 0 0 1.768.3v2.133h-6a1 1 0 0 0 -1 1v4a4.982 4.982 0 0 0 3.059 4.585 4.957 4.957 0 0 0 1.231 2.736 4.993 4.993 0 0 0 -3.29 4.679v2a1 1 0 0 0 2 0v-2a3 3 0 0 1 3-3h4a3 3 0 0 1 3 3v2a1 1 0 0 0 2 0v-2a4.993 4.993 0 0 0 -3.29-4.679 4.957 4.957 0 0 0 1.231-2.736 4.986 4.986 0 0 0 -1.941-9.585h-2v-2a16.939 16.939 0 0 0 11.873-4.855l4.33 3.936a7 7 0 1 0 12.109.906 1 1 0 0 0 -1.333-.471zm-4.979-31.516a1 1 0 1 1 -1 1 1 1 0 0 1 1-1zm-1 5a1 1 0 0 1 2 0v.9a5 5 0 0 1 -2 0zm-25 38v-2a1 1 0 0 1 1-1h4a1 1 0 0 1 1 1v2a3 3 0 0 1 -6 0zm9-4a2.972 2.972 0 0 1 -1 2.218v-.218a3 3 0 0 0 -3-3h-4a3 3 0 0 0 -3 3v.218a2.972 2.972 0 0 1 -1-2.218v-3h9a3 3 0 0 1 3 3zm17-5a1 1 0 1 1 -1 1 1 1 0 0 1 1-1zm-1 5.9v-.9a1 1 0 0 1 2 0v.9a5 5 0 0 1 -2 0z"/><path d="m13.851 49.965 9.386-13.06a17.28 17.28 0 0 0 2 1.208 1 1 0 0 0 .916-1.779 14.975 14.975 0 0 1 -6.363-20.434l.139-.238a14.92 14.92 0 0 1 16.4-7.283 1 1 0 0 0 .442-1.95 16.914 16.914 0 0 0 -17.918 7.161l-3.369-1.965a6.938 6.938 0 0 0 -.172-5.638 1 1 0 1 0 -1.8.863 4.947 4.947 0 0 1 -1.512 6.126 2.979 2.979 0 0 0 -.78-1.976 3 3 0 1 0 -4.44 0 2.979 2.979 0 0 0 -.78 1.976 4.985 4.985 0 0 1 5.147-8.484 1 1 0 0 0 .864-1.8 6.923 6.923 0 0 0 -3.011-.692 7 7 0 1 0 5.474 11.351l3.379 1.971a16.906 16.906 0 0 0 -.9 13.283l-1.953.811a7.082 7.082 0 1 0 .771 1.846l1.95-.813a16.891 16.891 0 0 0 3.948 5.208l-9.441 13.143a6.946 6.946 0 0 0 -6.241-.107 1 1 0 0 0 .864 1.8 4.951 4.951 0 0 1 2.149-.493 4.983 4.983 0 0 1 3 8.976 2.979 2.979 0 0 0 -.78-1.976 3 3 0 1 0 -4.44 0 2.979 2.979 0 0 0 -.78 1.976 4.947 4.947 0 0 1 -1.51-6.126 1 1 0 1 0 -1.805-.863 7 7 0 1 0 11.164-2.022zm-4.851-41.965a1 1 0 1 1 -1 1 1 1 0 0 1 1-1zm-1 5.9v-.9a1 1 0 0 1 2 0v.9a5 5 0 0 1 -2 0zm0 19.1a1 1 0 1 1 1 1 1 1 0 0 1 -1-1zm0 4.9v-.9a1 1 0 0 1 2 0v.9a5 5 0 0 1 -2 0zm4-.923a2.979 2.979 0 0 0 -.78-1.977 3 3 0 1 0 -4.44 0 2.979 2.979 0 0 0 -.78 1.976 5 5 0 1 1 6 0zm-3 17.023a1 1 0 1 1 -1 1 1 1 0 0 1 1-1zm-1 5.9v-.9a1 1 0 0 1 2 0v.9a5 5 0 0 1 -2 0z"/></g></g></g></svg>