<svg height="512" viewBox="0 0 64 64" width="512" xmlns="http://www.w3.org/2000/svg"><g id="Fill_Outline" data-name="Fill Outline"><g id="Stroke_copy" data-name="Stroke copy"><g><path d="m3 11h58v50h-58z" fill="#84d2f4"/><path d="m41 53a26 26 0 0 1 -26-26v-16h-12v50h58v-8z" fill="#57b7eb"/><path d="m3 45h58v16h-58z" fill="#f9e109"/><path d="m22.248 45h-19.248v16h58v-8h-20a25.918 25.918 0 0 1 -18.752-8z" fill="#fcbc04"/><path d="m3 3h16v8h-16z" fill="#f89c8d"/><path d="m19 3h42v8h-42z" fill="#f9e109"/><rect fill="#fcbc04" height="4" rx="2" width="36" x="22" y="5"/><path d="m3 3h12v8h-12z" fill="#f8664f"/><path d="m27 53-4-4v2h-2.917a5.153 5.153 0 0 0 -5.083 6 6.826 6.826 0 0 1 4.828-2h3.172v2z" fill="#57b7eb"/><path d="m19.012 51.115a5.152 5.152 0 0 0 -4.012 5.885 6.826 6.826 0 0 1 4.828-2h3.172v2l4-4h-6a1.994 1.994 0 0 1 -1.988-1.885z" fill="#4891d3"/><g><path d="m44 25h10v20h-10z" fill="#fcbc04"/><path d="m49 34v-9h-5v20h10v-3.587a8 8 0 0 1 -5-7.413z" fill="#e59730"/><path d="m44 32h10v8h-10z" fill="#f89c8d"/><path d="m49 34v-2h-5v8h7.74a7.955 7.955 0 0 1 -2.74-6z" fill="#f8664f"/><path d="m23.794 15a11.239 11.239 0 0 0 -10.794 11.365v2.635a6 6 0 0 1 -6 6 6 6 0 0 0 6 6h11a11 11 0 0 0 11-11v-4a11 11 0 0 0 -11.206-11z" fill="#f8664f"/><path d="m33 26.747a4.747 4.747 0 0 0 -4.747-4.747 5.44 5.44 0 0 1 -3.846-1.593l-1.017-1.017a4.615 4.615 0 0 1 -1.3-4.2 11.321 11.321 0 0 0 -9.09 11.175v2.635a6 6 0 0 1 -6 6 6 6 0 0 0 6 6h11a10.992 10.992 0 0 0 10.959-10.192 5.219 5.219 0 0 1 -1.959-4.061z" fill="#cc5144"/><path d="m19.1 41h-6.1a6 6 0 0 1 -6-6 6 6 0 0 0 6-6v-2.64a11.555 11.555 0 0 1 2-6.49v7.13a25.764 25.764 0 0 0 4.1 14z" fill="#ad4038"/><path d="m35 45v-1a7 7 0 0 0 -7-7h-8a7 7 0 0 0 -7 7v1z" fill="#f89c8d"/><path d="m20.76 45a7.963 7.963 0 0 1 -1.76-5v-1.683a6.951 6.951 0 0 0 7.884-1.317h-6.884a7 7 0 0 0 -7 7v1z" fill="#f8664f"/><path d="m40 35h8v10h-8z" fill="#f9e109"/><path d="m42 29h4v6h-4z" fill="#f9e109"/><path d="m21 34h6a0 0 0 0 1 0 0v5a3 3 0 0 1 -3 3 3 3 0 0 1 -3-3v-5a0 0 0 0 1 0 0z" fill="#fcbc04"/><path d="m25 40a2.979 2.979 0 0 1 -2.255-1.041 6.955 6.955 0 0 0 4.255-2.073v-2.886h-6v5a2.993 2.993 0 0 0 5.976.242 2.98 2.98 0 0 1 -1.976.758z" fill="#e59730"/><path d="m24 37a7 7 0 0 1 -7-7v-5h3l2-3 2 3h7v5a7 7 0 0 1 -7 7z" fill="#f9e109"/><g fill="#fcbc04"><path d="m24 25-2-3-2 3h-3v5a6.994 6.994 0 0 0 12.273 4.594 6.911 6.911 0 0 1 -2.956.373 7.174 7.174 0 0 1 -6.317-7.222 2.463 2.463 0 0 1 .413-1.365l1.587-2.38.219.328a6 6 0 0 0 4.992 2.672h3.789v-2z"/><path d="m42 37v-2h-2v10h8v-2a6 6 0 0 1 -6-6z"/><path d="m44 32v-3h-2v6h4v-1a2 2 0 0 1 -2-2z"/></g><path d="m22.26 45h-9.26v-1a7.009 7.009 0 0 1 4.24-6.44 25.736 25.736 0 0 0 5.02 7.44z" fill="#f8664f"/><path d="m22.26 45h-9.26v-1a7.009 7.009 0 0 1 4.24-6.44 25.736 25.736 0 0 0 5.02 7.44z" fill="#f8664f"/><path d="m20.76 45h-7.76v-1a7.009 7.009 0 0 1 4.24-6.44 24.376 24.376 0 0 0 1.82 3.38 7.906 7.906 0 0 0 1.7 4.06z" fill="#cc5144"/><path d="m20.76 45h-7.76v-1a7.009 7.009 0 0 1 4.24-6.44 24.376 24.376 0 0 0 1.82 3.38 7.906 7.906 0 0 0 1.7 4.06z" fill="#cc5144"/></g></g></g><g id="Outline_copy" data-name="Outline copy"><g fill="#39519d"><path d="m33 58a1 1 0 0 0 1-1v-6a1 1 0 0 0 -1.447-.9l-2 1a1 1 0 1 0 .894 1.79l.553-.272v4.382a1 1 0 0 0 1 1z"/><path d="m36 53v2a3 3 0 0 0 6 0v-2a3 3 0 0 0 -6 0zm4 0v2a1 1 0 0 1 -2 0v-2a1 1 0 0 1 2 0z"/><path d="m55 57a1 1 0 0 0 1-1v-1h1a1 1 0 0 0 0-2h-1v-1a1 1 0 0 0 -2 0v1h-1a1 1 0 0 0 0 2h1v1a1 1 0 0 0 1 1z"/><path d="m49.555 50.168a1 1 0 0 0 -1.387.277l-2 3a1 1 0 0 0 -.168.555v-3a1 1 0 0 0 -2 0v6a1 1 0 0 0 2 0v-3a1 1 0 0 0 .168.554l2 3a1 1 0 1 0 1.664-1.11l-1.632-2.444 1.63-2.445a1 1 0 0 0 -.275-1.387z"/><path d="m22.617 57.924a1 1 0 0 0 1.09-.217l4-4a1 1 0 0 0 0-1.414l-4-4a1 1 0 0 0 -1.707.707v1h-1.917a6.152 6.152 0 0 0 -6.069 7.164 1 1 0 0 0 1.693.543 5.791 5.791 0 0 1 4.122-1.707h2.171v1a1 1 0 0 0 .617.924zm-2.788-3.924a7.784 7.784 0 0 0 -3.717.935 4.156 4.156 0 0 1 3.971-2.935h2.917a1 1 0 0 0 .937-.649l1.649 1.649-1.649 1.649a1 1 0 0 0 -.937-.649z"/><circle cx="27" cy="28" r="1"/><circle cx="21" cy="28" r="1"/><path d="m24 33.826a3.817 3.817 0 0 0 2.707-1.119 1 1 0 0 0 -1.414-1.414 1.831 1.831 0 0 1 -2.586 0 1 1 0 0 0 -1.414 1.414 3.817 3.817 0 0 0 2.707 1.119z"/><path d="m48 13a1 1 0 0 0 -1 1v1h-1a1 1 0 0 0 0 2h1v1a1 1 0 0 0 2 0v-1h1a1 1 0 0 0 0-2h-1v-1a1 1 0 0 0 -1-1z"/><path d="m41 17a1 1 0 0 0 -1 1v1h-1a1 1 0 0 0 0 2h1v1a1 1 0 0 0 2 0v-1h1a1 1 0 0 0 0-2h-1v-1a1 1 0 0 0 -1-1z"/><path d="m8 16a1 1 0 0 0 -1 1v1h-1a1 1 0 0 0 0 2h1v1a1 1 0 0 0 2 0v-1h1a1 1 0 0 0 0-2h-1v-1a1 1 0 0 0 -1-1z"/><path d="m14 29a1 1 0 0 0 -2 0 5.006 5.006 0 0 1 -5 5 1 1 0 0 0 -1 1 7.01 7.01 0 0 0 6.273 6.962 7.972 7.972 0 0 0 -.273 2.038h-5a1 1 0 0 0 0 2h50a1 1 0 0 0 0-2h-2v-19a1 1 0 0 0 -1-1h-10a1 1 0 0 0 0 2h9v5h-3a1 1 0 0 0 0 2h3v6h-4v-4a1 1 0 0 0 -1-1h-5v-4h2v1a1 1 0 0 0 2 0v-2a1 1 0 0 0 -1-1h-4a1 1 0 0 0 -1 1v5h-1a1 1 0 0 0 -1 1v9h-3a8.041 8.041 0 0 0 -2.918-6.169 11.855 11.855 0 0 0 2.918-7.831v-4a12 12 0 0 0 -12.224-12 12.155 12.155 0 0 0 -11.716 11.143 1 1 0 0 0 1.99.2 10.157 10.157 0 0 1 9.763-9.343 10 10 0 0 1 10.187 10v4a9.9 9.9 0 0 1 -3.13 7.252 1 1 0 0 0 .177 1.587 5.952 5.952 0 0 1 2.953 5.161h-20a6.006 6.006 0 0 1 6-6v1a4 4 0 0 0 8 0v-2.082a8 8 0 0 0 4-6.918 1 1 0 0 0 -2 0 6 6 0 0 1 -12 0v-5h2a1 1 0 0 0 .832-.445l1.168-1.755 1.168 1.752a1 1 0 0 0 .832.448h6v1a1 1 0 0 0 2 0v-2a1 1 0 0 0 -1-1h-6.465l-1.7-2.555a1.039 1.039 0 0 0 -1.664 0l-1.706 2.555h-2.465a1 1 0 0 0 -1 1v6a7.98 7.98 0 0 0 2.831 6.1 8.01 8.01 0 0 0 -5.749 3.9h-.082a5.009 5.009 0 0 1 -4.916-4.084 7.011 7.011 0 0 0 5.916-6.916zm39 15h-4v-3h4zm-6-8v3h-6v-3zm-6 5h6v3h-6zm-15-3.263v1.263a2 2 0 0 1 -4 0v-1.263a7.736 7.736 0 0 0 4 0z"/><path d="m61 2h-58a1 1 0 0 0 -1 1v21a1 1 0 0 0 2 0v-12h53a1 1 0 0 0 0-2h-37v-6h40v56h-56v-32a1 1 0 0 0 -2 0v33a1 1 0 0 0 1 1h58a1 1 0 0 0 1-1v-58a1 1 0 0 0 -1-1zm-57 2h14v6h-14z"/><circle cx="7" cy="7" r="1"/><circle cx="11" cy="7" r="1"/><circle cx="15" cy="7" r="1"/><path d="m25 6a1 1 0 0 0 0 2h18a1 1 0 0 0 0-2z"/><path d="m47 6a1 1 0 0 0 0 2h6a1 1 0 0 0 0-2z"/></g></g></g></svg>