<svg height="512" viewBox="0 0 64 64" width="512" xmlns="http://www.w3.org/2000/svg"><g id="Fill_Outline" data-name="Fill Outline"><g id="Stroke_copy" data-name="Stroke copy"><g><path d="m23 61h-20v-5a4 4 0 0 1 4-4h12a4 4 0 0 1 4 4z" fill="#84d2f4"/><path d="m9 45h7a0 0 0 0 1 0 0v9a0 0 0 0 1 0 0h-4a3 3 0 0 1 -3-3v-6a0 0 0 0 1 0 0z" fill="#fcbc04"/><path d="m11.449 50.918a7.578 7.578 0 0 0 1.051.082 7.46 7.46 0 0 0 3.5-.869v-5.131h-7v6a3 3 0 0 0 3 3h4v-.163a7.5 7.5 0 0 1 -4.551-2.919z" fill="#e59730"/><path d="m7.123 42.5 1.877 1.5 13-5a18.949 18.949 0 0 0 2-8.472v-3.528h-11a9 9 0 0 0 -9 9 8.324 8.324 0 0 0 3.123 6.5z" fill="#57b7eb"/><path d="m4 36a8.324 8.324 0 0 0 3.123 6.5l1.8 1.44.25-.006 12.827-4.934a18.948 18.948 0 0 0 1.832-6h-.387a2.452 2.452 0 0 1 -2.445-2.447v-.553h-5a3 3 0 0 1 -3-3 9 9 0 0 0 -9 9z" fill="#4891d3"/><path d="m20 36v-2a2 2 0 0 0 -2-2h-2.754a2.247 2.247 0 0 0 -2.246 2.246 2.245 2.245 0 0 1 -1.7 2.179l-.6.15a2.245 2.245 0 0 0 -1.7 2.179v6.246a5 5 0 0 0 5 5h3a3 3 0 0 0 3-3 4 4 0 0 1 -4-4h4l3-2z" fill="#f9e109"/><g><path d="m28 42h4a0 0 0 0 1 0 0v8a0 0 0 0 1 0 0h-4a4 4 0 0 1 -4-4 4 4 0 0 1 4-4z" fill="#f8664f"/><path d="m40 52-8-2v-8l8-2z" fill="#84d2f4"/><path d="m31.368 56a1.9 1.9 0 0 1 -1.8-1.3l-1.568-4.7h4l1.168 3.5a1.9 1.9 0 0 1 -1.8 2.5z" fill="#84d2f4"/><path d="m30 47a4 4 0 0 1 -4-4 4.061 4.061 0 0 1 .047-.471 3.988 3.988 0 0 0 1.953 7.471h4v-3z" fill="#cc5144"/><g fill="#57b7eb"><path d="m38.545 48.136a6 6 0 0 1 -4.545-5.821v-.815l-2 .5v8l8 2v-3.5z"/><path d="m33.168 53.5-1.168-3.5h-4l.339 1.018a3.992 3.992 0 0 1 3.573 2.717l.256.768a1.885 1.885 0 0 1 -.049 1.331 1.891 1.891 0 0 0 1.049-2.334z"/></g></g><path d="m28 61h-5l4.948-6.6a1.854 1.854 0 0 1 2.51-.43 1.853 1.853 0 0 1 .514 2.57z" fill="#f9e109"/><path d="m54 15h6v36h-6z" fill="#f9e109"/><path d="m43 20h6v15h-6z" fill="#f9e109"/><path d="m33 27h6v8h-6z" fill="#f9e109"/><path d="m19 8 1.236 2.505 2.764.401-2 1.95.472 2.752-2.472-1.299-2.472 1.299.472-2.752-2-1.95 2.764-.401z" fill="#f9e109"/><path d="m31 3 1.236 2.505 2.764.401-2 1.95.472 2.752-2.472-1.299-2.472 1.299.472-2.752-2-1.95 2.764-.401z" fill="#f9e109"/><path d="m7 13 1.236 2.505 2.764.401-2 1.95.472 2.752-2.472-1.299-2.472 1.299.472-2.752-2-1.95 2.764-.401z" fill="#f9e109"/><g fill="#fcbc04"><path d="m31 3v2.69a1 1 0 0 0 1.264.964l2.736-.748-2 1.95.472 2.752-2.472-1.299-2.472 1.3.472-2.753-2-1.95 2.764-.4z"/><path d="m19 8v2.69a1 1 0 0 0 1.264.964l2.736-.748-2 1.95.472 2.752-2.472-1.299-2.472 1.3.472-2.753-2-1.95 2.764-.4z"/><path d="m7 13v2.69a1 1 0 0 0 1.264.964l2.736-.748-2 1.95.472 2.752-2.472-1.299-2.472 1.3.472-2.753-2-1.95 2.764-.4z"/><path d="m57 44v-29h-3v36h6v-4a3 3 0 0 1 -3-3z"/><path d="m46 28v-8h-3v15h6v-4a3 3 0 0 1 -3-3z"/><path d="m36 28v-1h-3v8h6v-4a3 3 0 0 1 -3-3z"/><path d="m20 36v-2a2 2 0 0 0 -2-2h-2.754a2.247 2.247 0 0 0 -2.246 2.246 2.245 2.245 0 0 1 -1.7 2.179l-.6.15a2.245 2.245 0 0 0 -1.7 2.179v6.246a5 5 0 0 0 5 5h3a2.99 2.99 0 0 0 2.816-2h-2.816a5 5 0 0 1 -5-5v-4.5l.3-.075a2.245 2.245 0 0 0 1.7-2.179 2.247 2.247 0 0 1 2.246-2.246h.754c1.105 0 3 2 3 2z"/></g><path d="m15 58a6 6 0 0 1 -6-6h-2a4 4 0 0 0 -4 4v5h20v-3z" fill="#57b7eb"/><path d="m30.972 54.542-2.386 3.58a1.975 1.975 0 0 1 -1.642.878 1.936 1.936 0 0 1 -1.7-.994l-2.244 2.994h5l2.972-4.458a1.852 1.852 0 0 0 .016-2.03c-.006.01-.01.02-.016.03z" fill="#fcbc04"/></g></g><g id="Outline_copy" data-name="Outline copy"><g fill="#39519d"><path d="m39.757 39.03-7.881 1.97h-3.876a4.99 4.99 0 0 0 -.746 9.925l.714 2.141a2.861 2.861 0 0 0 -.82.736l-3.148 4.198v-2a4.992 4.992 0 0 0 -3.053-4.606 1 1 0 1 0 -.78 1.841 3 3 0 0 1 1.833 2.765v5a1 1 0 0 0 1.8.6l4.948-6.6a.853.853 0 0 1 1.392.985l-2.972 4.458a1 1 0 0 0 1.664 1.11l2.968-4.453c.034-.051.054-.106.084-.158a2.876 2.876 0 0 0 2.228-3.753l-.591-1.774 6.232 1.558a1 1 0 0 0 1.247-.973v-3a1 1 0 0 0 -2 0v1.719l-6-1.5v-6.438l6-1.5v3.719a1 1 0 0 0 2 0v-5a1 1 0 0 0 -1.243-.97zm-14.757 6.97a3 3 0 0 1 3-3h3v6h-3a3 3 0 0 1 -3-3zm4.959 6.715-.571-1.715h1.891l.94 2.819a.881.881 0 0 1 -.105.763 2.794 2.794 0 0 0 -2.155-1.867z"/><circle cx="17" cy="38" r="1"/><path d="m21 47a1 1 0 0 0 -1-1 3.006 3.006 0 0 1 -2.829-2h2.829a1.006 1.006 0 0 0 .555-.168l3-2a1 1 0 0 0 .3-1.347l-.814-1.357a20.047 20.047 0 0 0 1.959-8.6v-3.528a1 1 0 0 0 -1-1h-11a10.011 10.011 0 0 0 -10 10 9.344 9.344 0 0 0 1.119 4.4 1 1 0 1 0 1.762-.946 7.344 7.344 0 0 1 -.881-3.454 8.009 8.009 0 0 1 8-8h10v2.528a18 18 0 0 1 -1.235 6.472l-.765-1.277v-1.723a3 3 0 0 0 -3-3h-2.754a3.249 3.249 0 0 0 -3.246 3.246 1.244 1.244 0 0 1 -.944 1.209l-.6.149a3.242 3.242 0 0 0 -2.456 3.15v12.246h-1a5.006 5.006 0 0 0 -5 5v5a1 1 0 0 0 2 0v-5a3 3 0 0 1 3-3h1.556a3.987 3.987 0 0 0 3.444 2h4a1 1 0 0 0 1-1v-3a4 4 0 0 0 4-4zm-6 6h-3a2 2 0 0 1 -2-2v-1.54a5.969 5.969 0 0 0 4 1.54h1zm2-4h-3a4 4 0 0 1 -4-4v-6.246a1.244 1.244 0 0 1 .944-1.209l.6-.149a3.242 3.242 0 0 0 2.456-3.15 1.247 1.247 0 0 1 1.246-1.246h2.754a1 1 0 0 1 1 1v2a1 1 0 0 0 .143.515l2.509 4.185-1.952 1.3h-3.7a1 1 0 0 0 -1 1 5.009 5.009 0 0 0 3.807 4.856 2 2 0 0 1 -1.807 1.144z"/><path d="m19 58a1 1 0 0 0 -1 1v2a1 1 0 0 0 2 0v-2a1 1 0 0 0 -1-1z"/><path d="m7 58a1 1 0 0 0 -1 1v2a1 1 0 0 0 2 0v-2a1 1 0 0 0 -1-1z"/><path d="m47 45h-3a1 1 0 0 0 0 2h3a1 1 0 0 0 0-2z"/><path d="m44 43a1 1 0 0 0 .316-.051l3-1a1 1 0 0 0 -.632-1.9l-3 1a1 1 0 0 0 .316 1.951z"/><path d="m47.316 50.051-3-1a1 1 0 0 0 -.632 1.9l3 1a1 1 0 1 0 .632-1.9z"/><path d="m60 14h-6a1 1 0 0 0 -1 1v36a1 1 0 0 0 1 1h6a1 1 0 0 0 1-1v-11a1 1 0 0 0 -2 0v10h-4v-34h4v20a1 1 0 0 0 2 0v-21a1 1 0 0 0 -1-1z"/><path d="m49 19h-6a1 1 0 0 0 -1 1v15a1 1 0 0 0 1 1h6a1 1 0 0 0 1-1v-4a1 1 0 0 0 -2 0v3h-4v-13h4v6a1 1 0 0 0 2 0v-7a1 1 0 0 0 -1-1z"/><path d="m39 28a1 1 0 0 0 0-2h-6a1 1 0 0 0 -1 1v8a1 1 0 0 0 1 1h6a1 1 0 0 0 1-1v-4a1 1 0 0 0 -2 0v3h-4v-6z"/><path d="m61 2h-4a1 1 0 0 0 0 2h1.442l-10.833 10h-2.609a1 1 0 0 0 0 2h3a1 1 0 0 0 .678-.265l11.322-10.451v1.716a1 1 0 0 0 2 0v-4a1 1 0 0 0 -1-1z"/><path d="m41 14h-4a1 1 0 0 0 -.707.293l-6.707 6.707h-12.586a1 1 0 0 0 0 2h13a1 1 0 0 0 .707-.293l6.707-6.707h3.586a1 1 0 0 0 0-2z"/><path d="m15.925 13.205-.383 2.234a1 1 0 0 0 1.451 1.055l2.007-1.056 2.007 1.056a1.008 1.008 0 0 0 .465.114 1 1 0 0 0 .986-1.169l-.383-2.234 1.625-1.582a1 1 0 0 0 -.554-1.706l-2.246-.327-1-2.032a1.041 1.041 0 0 0 -1.794 0l-1 2.032-2.244.327a1 1 0 0 0 -.554 1.706zm1.983-1.711a1 1 0 0 0 .753-.547l.339-.687.339.687a1 1 0 0 0 .753.547l.759.11-.549.535a1 1 0 0 0 -.288.885l.13.756-.679-.357a1.005 1.005 0 0 0 -.93 0l-.679.357.13-.756a1 1 0 0 0 -.288-.885l-.549-.535z"/><path d="m27.925 8.205-.383 2.234a1 1 0 0 0 1.451 1.055l2.007-1.056 2.007 1.056a1.008 1.008 0 0 0 .465.114 1 1 0 0 0 .986-1.169l-.383-2.234 1.625-1.582a1 1 0 0 0 -.554-1.706l-2.246-.327-1-2.032a1.041 1.041 0 0 0 -1.794 0l-1 2.032-2.244.327a1 1 0 0 0 -.562 1.706zm1.983-1.711a1 1 0 0 0 .753-.547l.339-.687.339.687a1 1 0 0 0 .753.547l.759.11-.549.535a1 1 0 0 0 -.288.885l.13.756-.679-.357a1.005 1.005 0 0 0 -.93 0l-.679.357.13-.756a1 1 0 0 0 -.288-.885l-.549-.539z"/><path d="m3.925 18.2-.383 2.234a1 1 0 0 0 1.451 1.055l2.007-1.051 2.007 1.056a1.008 1.008 0 0 0 .465.114 1 1 0 0 0 .986-1.169l-.383-2.239 1.625-1.577a1 1 0 0 0 -.554-1.706l-2.246-.327-1-2.032a1.041 1.041 0 0 0 -1.794 0l-1 2.032-2.244.327a1 1 0 0 0 -.562 1.706zm1.983-1.711a1 1 0 0 0 .753-.547l.339-.682.339.687a1 1 0 0 0 .753.547l.759.11-.549.535a1 1 0 0 0 -.288.885l.13.756-.679-.357a1.005 1.005 0 0 0 -.93 0l-.679.357.13-.756a1 1 0 0 0 -.288-.885l-.549-.539z"/></g></g></g></svg>