<svg height="512" viewBox="0 0 64 64" width="512" xmlns="http://www.w3.org/2000/svg"><g id="Fill_Outline" data-name="Fill Outline"><g id="Color"><g><rect fill="#4891d3" height="46" rx="4" width="58" x="3" y="3"/><path d="m41 3a4 4 0 0 0 4 4h10a2 2 0 0 1 2 2v12a4 4 0 0 0 4 4v-18a4 4 0 0 0 -4-4z" fill="#57b7eb"/><path d="m38 41a24 24 0 0 1 -24-24v-14h-7a4 4 0 0 0 -4 4v38a4 4 0 0 0 4 4h50a4 4 0 0 0 4-4v-4z" fill="#2d72bc"/><path d="m43 57h-22l3-8h16z" fill="#d0d8da"/><path d="m16 57h32a4 4 0 0 1 4 4 0 0 0 0 1 0 0h-40a0 0 0 0 1 0 0 4 4 0 0 1 4-4z" fill="#e9f1f2"/><g><circle cx="32" cy="11" fill="#84d2f4" r="8"/><path d="m36 16a7.994 7.994 0 0 1 -6.557-12.575 8 8 0 1 0 9.114 12.15 7.986 7.986 0 0 1 -2.557.425z" fill="#57b7eb"/><g fill="#f9e109"><path d="m32 11a2 2 0 0 1 2 2v2a0 0 0 0 1 0 0h-4a0 0 0 0 1 0 0v-2a2 2 0 0 1 2-2z"/><circle cx="32" cy="9" r="2"/></g><path d="m33 10a1.992 1.992 0 0 1 -1.82-2.82 2 2 0 1 0 2.64 2.64 1.99 1.99 0 0 1 -.82.18z" fill="#fcbc04"/><path d="m33 14a1.992 1.992 0 0 1 -1.82-2.82 2 2 0 0 0 -1.18 1.82v2h4v-1.277a1.987 1.987 0 0 1 -1 .277z" fill="#fcbc04"/><path d="m32.14 15h-2.14v-1.71a7.724 7.724 0 0 0 2.14 1.71z" fill="#e59730"/></g><g><circle cx="14" cy="40" fill="#84d2f4" r="8"/><path d="m18 45a7.994 7.994 0 0 1 -6.557-12.575 8 8 0 1 0 9.114 12.15 7.986 7.986 0 0 1 -2.557.425z" fill="#57b7eb"/><g fill="#f9e109"><path d="m14 40a2 2 0 0 1 2 2v2a0 0 0 0 1 0 0h-4a0 0 0 0 1 0 0v-2a2 2 0 0 1 2-2z"/><circle cx="14" cy="38" r="2"/></g><path d="m15 39a1.992 1.992 0 0 1 -1.82-2.82 2 2 0 1 0 2.64 2.64 1.99 1.99 0 0 1 -.82.18z" fill="#fcbc04"/><path d="m15 43a1.992 1.992 0 0 1 -1.82-2.82 2 2 0 0 0 -1.18 1.82v2h4v-1.277a1.987 1.987 0 0 1 -1 .277z" fill="#fcbc04"/><path d="m14.14 44h-2.14v-1.71a7.724 7.724 0 0 0 2.14 1.71z" fill="#e59730"/></g><g><circle cx="50" cy="40" fill="#84d2f4" r="8"/><path d="m57.94 41a8 8 0 0 1 -15.88 0z" fill="#57b7eb"/><path d="m54 45a7.994 7.994 0 0 1 -6.557-12.575 8 8 0 1 0 9.114 12.15 7.986 7.986 0 0 1 -2.557.425z" fill="#57b7eb"/><path d="m56.56 44.58a8 8 0 0 1 -14.5-3.58h5.02a7.992 7.992 0 0 0 9.48 3.58z" fill="#4891d3"/><g fill="#f9e109"><path d="m50 40a2 2 0 0 1 2 2v2a0 0 0 0 1 0 0h-4a0 0 0 0 1 0 0v-2a2 2 0 0 1 2-2z"/><circle cx="50" cy="38" r="2"/></g><path d="m51 39a1.992 1.992 0 0 1 -1.82-2.82 2 2 0 1 0 2.64 2.64 1.99 1.99 0 0 1 -.82.18z" fill="#fcbc04"/><path d="m51 43a1.992 1.992 0 0 1 -1.82-2.82 2 2 0 0 0 -1.18 1.82v2h4v-1.277a1.987 1.987 0 0 1 -1 .277z" fill="#fcbc04"/><path d="m50.14 44h-2.14v-1.71a7.724 7.724 0 0 0 2.14 1.71z" fill="#e59730"/></g><g fill="#f9e109"><path d="m54 16a2 2 0 0 1 2 2v2a0 0 0 0 1 0 0h-4a0 0 0 0 1 0 0v-2a2 2 0 0 1 2-2z"/><circle cx="54" cy="14" r="2"/></g><path d="m55 15a1.992 1.992 0 0 1 -1.82-2.82 2 2 0 1 0 2.64 2.64 1.99 1.99 0 0 1 -.82.18z" fill="#fcbc04"/><path d="m55 19a1.992 1.992 0 0 1 -1.82-2.82 2 2 0 0 0 -1.18 1.82v2h4v-1.277a1.987 1.987 0 0 1 -1 .277z" fill="#fcbc04"/><g fill="#f9e109"><path d="m10 16a2 2 0 0 1 2 2v2a0 0 0 0 1 0 0h-4a0 0 0 0 1 0 0v-2a2 2 0 0 1 2-2z"/><circle cx="10" cy="14" r="2"/></g><path d="m11 15a1.992 1.992 0 0 1 -1.82-2.82 2 2 0 1 0 2.64 2.64 1.99 1.99 0 0 1 -.82.18z" fill="#fcbc04"/><path d="m11 19a1.992 1.992 0 0 1 -1.82-2.82 2 2 0 0 0 -1.18 1.82v2h4v-1.277a1.987 1.987 0 0 1 -1 .277z" fill="#fcbc04"/><path d="m38 31a6.065 6.065 0 0 0 -.1-1.094l2.032-1.174-2-3.464-2.032 1.174a5.965 5.965 0 0 0 -1.9-1.093v-2.349h-4v2.349a5.965 5.965 0 0 0 -1.895 1.093l-2.033-1.174-2 3.464 2.028 1.174a5.806 5.806 0 0 0 0 2.188l-2.032 1.174 2 3.464 2.033-1.174a5.965 5.965 0 0 0 1.899 1.093v2.349h4v-2.349a5.965 5.965 0 0 0 1.9-1.093l2.033 1.174 2-3.464-2.033-1.174a6.065 6.065 0 0 0 .1-1.094zm-6 2a2 2 0 1 1 2-2 2 2 0 0 1 -2 2z" fill="#f9e109"/><path d="m37 34h-.064a3.785 3.785 0 0 1 -3.264-1.907 2 2 0 1 1 -.514-2.718 4 4 0 0 1 .48-1.356l1.294-2.241a6.014 6.014 0 0 0 -.932-.429v-2.349h-4v2.349a5.965 5.965 0 0 0 -1.895 1.093l-2.033-1.174-2 3.464 2.028 1.174a5.806 5.806 0 0 0 0 2.188l-2.032 1.174 2 3.464 2.033-1.174a5.965 5.965 0 0 0 1.899 1.093v2.349h4v-2.349a5.965 5.965 0 0 0 1.9-1.093l2.033 1.174 1.829-3.167a8.979 8.979 0 0 1 -2.762.435z" fill="#fcbc04"/><path d="m21 57 3-8h16z" fill="#93999a"/><path d="m20 59a2.99 2.99 0 0 1 -2.816-2h-1.184a4 4 0 0 0 -4 4h40a3.955 3.955 0 0 0 -.555-2z" fill="#d0d8da"/></g></g><g id="Outline_copy" data-name="Outline copy"><g fill="#464a51"><path d="m61 34a1 1 0 0 0 -1 1v10a3 3 0 0 1 -3 3h-2.9a8.974 8.974 0 0 0 3.644-12.566 1 1 0 0 0 -1.723 1.017 7.02 7.02 0 1 1 -2.476-2.476 1 1 0 1 0 1.017-1.723 8.993 8.993 0 1 0 -8.662 15.748h-27.8a8.974 8.974 0 0 0 3.644-12.566 1 1 0 0 0 -1.723 1.017 7.02 7.02 0 1 1 -2.476-2.476 1 1 0 1 0 1.017-1.723 8.993 8.993 0 1 0 -8.662 15.748h-2.9a3 3 0 0 1 -3-3v-26a1 1 0 0 0 -2 0v26a5.006 5.006 0 0 0 5 5h15.557l-2.25 6h-4.307a5.006 5.006 0 0 0 -5 5 1 1 0 0 0 1 1h26a1 1 0 0 0 0-2h-24.829a3.006 3.006 0 0 1 2.829-2h32a3.006 3.006 0 0 1 2.829 2h-8.829a1 1 0 0 0 0 2h10a1 1 0 0 0 1-1 5.006 5.006 0 0 0 -5-5h-4.307l-2.25-6h15.557a5.006 5.006 0 0 0 5-5v-10a1 1 0 0 0 -1-1zm-19.443 22h-19.114l2.25-6h14.614z"/><path d="m57 2h-50a5.006 5.006 0 0 0 -5 5v8a1 1 0 0 0 2 0v-8a3 3 0 0 1 3-3h19.356a9 9 0 1 0 13.392 2.434 1 1 0 0 0 -1.723 1.017 7.02 7.02 0 1 1 -2.476-2.476 1 1 0 0 0 1.37-.353.978.978 0 0 0 .115-.622h19.966a3 3 0 0 1 3 3v24a1 1 0 0 0 2 0v-24a5.006 5.006 0 0 0 -5-5z"/><path d="m50 35a2.987 2.987 0 0 0 -2.22 5 2.981 2.981 0 0 0 -.78 2v2a1 1 0 0 0 1 1h4a1 1 0 0 0 1-1v-2a2.981 2.981 0 0 0 -.78-2 2.987 2.987 0 0 0 -2.22-5zm0 2a1 1 0 1 1 -1 1 1 1 0 0 1 1-1zm1 6h-2v-1a1 1 0 0 1 2 0z"/><path d="m32 6a2.987 2.987 0 0 0 -2.22 5 2.981 2.981 0 0 0 -.78 2v2a1 1 0 0 0 1 1h4a1 1 0 0 0 1-1v-2a2.981 2.981 0 0 0 -.78-2 2.987 2.987 0 0 0 -2.22-5zm0 2a1 1 0 1 1 -1 1 1 1 0 0 1 1-1zm1 6h-2v-1a1 1 0 0 1 2 0z"/><path d="m14 35a2.987 2.987 0 0 0 -2.22 5 2.981 2.981 0 0 0 -.78 2v2a1 1 0 0 0 1 1h4a1 1 0 0 0 1-1v-2a2.981 2.981 0 0 0 -.78-2 2.987 2.987 0 0 0 -2.22-5zm0 2a1 1 0 1 1 -1 1 1 1 0 0 1 1-1zm1 6h-2v-1a1 1 0 0 1 2 0z"/><path d="m29 31a3 3 0 1 0 3-3 3 3 0 0 0 -3 3zm4 0a1 1 0 1 1 -1-1 1 1 0 0 1 1 1z"/><path d="m23.206 33.768 2 3.464a1 1 0 0 0 1.366.366l1.454-.84a6.87 6.87 0 0 0 .974.561v1.681a1 1 0 0 0 1 1h4a1 1 0 0 0 1-1v-1.681a6.87 6.87 0 0 0 .974-.561l1.454.84a1 1 0 0 0 1.366-.366l2-3.464a1 1 0 0 0 -.366-1.366l-1.452-.839c.016-.189.024-.376.024-.563s-.008-.374-.024-.563l1.452-.839a1 1 0 0 0 -1-1.732l-2.028 1.174a1 1 0 0 0 -.484 1.047 4.78 4.78 0 0 1 0 1.826 1 1 0 0 0 .484 1.047l1.166.674-1 1.732-1.166-.674a1 1 0 0 0 -1.15.106 4.978 4.978 0 0 1 -1.579.91 1 1 0 0 0 -.667.943v1.349h-2.004v-1.349a1 1 0 0 0 -.667-.943 4.978 4.978 0 0 1 -1.579-.91 1 1 0 0 0 -1.15-.106l-1.166.674-1-1.732 1.162-.674a1 1 0 0 0 .484-1.047 4.78 4.78 0 0 1 0-1.826 1 1 0 0 0 -.484-1.047l-1.166-.674 1-1.732 1.166.674a1 1 0 0 0 1.15-.106 4.978 4.978 0 0 1 1.579-.91 1 1 0 0 0 .671-.943v-1.349h2v1.349a1 1 0 0 0 .667.943 4.978 4.978 0 0 1 1.579.91 1 1 0 0 0 1.15.106l2.032-1.174a1 1 0 0 0 -1-1.732l-1.454.84a6.87 6.87 0 0 0 -.974-.561v-1.681a1 1 0 0 0 -1-1h-4a1 1 0 0 0 -1 1v1.681a6.87 6.87 0 0 0 -.974.561l-1.454-.84a1 1 0 0 0 -1.366.366l-2 3.464a1 1 0 0 0 .366 1.366l1.452.839c-.016.189-.024.376-.024.563s.008.374.024.563l-1.452.839a1 1 0 0 0 -.366 1.366z"/><path d="m48.237 27.656a1 1 0 0 0 .985.829 1.017 1.017 0 0 0 .172-.015 1 1 0 0 0 .814-1.157 18.51 18.51 0 0 0 -6.333-10.992 1 1 0 0 0 -1.286 1.532 16.5 16.5 0 0 1 5.648 9.803z"/><path d="m37.657 42.982a16.3 16.3 0 0 1 -11.314 0 1 1 0 0 0 -.686 1.879 18.231 18.231 0 0 0 12.686 0 1 1 0 0 0 -.686-1.879z"/><path d="m14.778 28.485a1 1 0 0 0 .985-.829 16.5 16.5 0 0 1 5.648-9.8 1 1 0 1 0 -1.286-1.532 18.51 18.51 0 0 0 -6.333 10.992 1 1 0 0 0 .814 1.157 1.017 1.017 0 0 0 .172.012z"/><path d="m51 20a1 1 0 0 0 1 1h4a1 1 0 0 0 1-1v-2a2.981 2.981 0 0 0 -.78-2 3 3 0 1 0 -4.44 0 2.981 2.981 0 0 0 -.78 2zm4-1h-2v-1a1 1 0 0 1 2 0zm-1-6a1 1 0 1 1 -1 1 1 1 0 0 1 1-1z"/><path d="m7 20a1 1 0 0 0 1 1h4a1 1 0 0 0 1-1v-2a2.981 2.981 0 0 0 -.78-2 3 3 0 1 0 -4.44 0 2.981 2.981 0 0 0 -.78 2zm4-1h-2v-1a1 1 0 0 1 2 0zm-1-6a1 1 0 1 1 -1 1 1 1 0 0 1 1-1z"/></g></g></g></svg>