<svg id="_192_ico" data-name="192_ico" xmlns="http://www.w3.org/2000/svg" width="192" height="210.443" viewBox="0 0 192 210.443">
  <path id="Caminho_31" data-name="Caminho 31" d="M615.227,182c-5.437-.588-9.992-2.792-12.05-8.67-2.057-6.172-.441-11.316,4.85-14.843,7.788-5,15.871-9.552,23.953-14.255q69.658-40.119,139.167-80.385c5.731-3.38,11.315-4.85,17.194-1.029,8.376,5.584,7.642,16.459-1.909,22.337-10.582,6.613-21.457,12.638-32.332,18.81L625.807,178.037A25.078,25.078,0,0,1,615.227,182Z" transform="translate(-602.144 28.438)" fill="#e6565a"/>
  <path id="Caminho_32" data-name="Caminho 32" d="M740.634,52.273c0,6.907-4.557,10.434-9.848,13.52Q680.751,94.669,631,123.4c-3.233,1.763-6.318,3.821-9.7,5.29-6.908,3.086-13.814.882-17.194-5-3.675-6.466-2.058-13.52,4.849-17.782C619.835,99.3,631,93.126,642.026,86.66c25.717-14.843,51.287-29.685,77-44.381C729.17,36.4,740.486,41.692,740.634,52.273Z" transform="translate(-602.198 18.709)" fill="#e6565a"/>
  <path id="Caminho_33" data-name="Caminho 33" d="M616.548,78.742c-7.349-.147-11.61-3.233-13.52-9.258-2.057-6.613.44-11.609,6.025-14.989,13.374-8.083,27.04-15.724,40.56-23.66,5.73-3.38,11.315-6.76,17.193-9.846,7.349-3.968,14.7-2.351,18.664,3.968,3.968,6.172,2.2,13.961-5.142,18.223-19.4,11.463-38.944,22.631-58.343,33.8A37.286,37.286,0,0,1,616.548,78.742Z" transform="translate(-602.143 8.846)" fill="#e6565a"/>
  <path id="Caminho_34" data-name="Caminho 34" d="M629.606,13.521c-.147,7.348-5.732,12.638-13.226,12.638A13.077,13.077,0,0,1,603.3,13.227C603.153,6.026,609.766-.146,617.115,0A13.3,13.3,0,0,1,629.606,13.521Z" transform="translate(-601.682 0.002)" fill="#e6585b"/>
</svg>
