<svg id="_512_ico" data-name="512_ico" xmlns="http://www.w3.org/2000/svg" width="512" height="561.182" viewBox="0 0 512 561.182">
  <path id="Caminho_31" data-name="Caminho 31" d="M636.751,384.415c-14.5-1.568-26.646-7.446-32.134-23.121-5.487-16.459-1.175-30.175,12.933-39.58,20.769-13.324,42.324-25.473,63.875-38.013Q867.179,176.718,1052.536,69.342c15.284-9.013,30.174-12.932,45.85-2.743,22.337,14.892,20.378,43.891-5.09,59.566-28.22,17.635-57.218,33.7-86.218,50.16Q836.026,275.08,664.967,373.834C655.951,379.321,647.331,383.24,636.751,384.415Z" transform="translate(-601.865 176.766)" fill="#e6565a"/>
  <path id="Caminho_32" data-name="Caminho 32" d="M971.362,73c0,18.418-12.152,27.823-26.262,36.053q-133.427,77-266.086,153.617c-8.62,4.7-16.849,10.189-25.861,14.108-18.422,8.23-36.838,2.351-45.85-13.324-9.8-17.243-5.489-36.053,12.931-47.418,29-17.635,58.78-34.094,88.174-51.337,68.578-39.58,136.766-79.16,205.344-118.348C940.791,30.672,970.967,44.78,971.362,73Z" transform="translate(-602.198 116.291)" fill="#e6565a"/>
  <path id="Caminho_33" data-name="Caminho 33" d="M640.273,178.591c-19.6-.392-30.959-8.621-36.054-24.689-5.486-17.635,1.174-30.959,16.066-39.972C655.949,92.377,692.393,72,728.447,50.838c15.281-9.013,30.173-18.027,45.849-26.256,19.6-10.581,39.189-6.27,49.77,10.581,10.581,16.459,5.878,37.229-13.713,48.594-51.732,30.567-103.85,60.35-155.58,90.133C649.288,176.632,643.407,177.416,640.273,178.591Z" transform="translate(-601.86 54.977)" fill="#e6565a"/>
  <path id="Caminho_34" data-name="Caminho 34" d="M673.451,36.058c-.393,19.594-15.285,33.7-35.27,33.7-19.2,0-34.877-15.675-34.877-34.486-.393-19.2,17.242-35.661,36.837-35.269C658.56.789,673.839,16.856,673.451,36.058Z" transform="translate(-598.987 0.002)" fill="#e6585b"/>
</svg>
