<svg xmlns="http://www.w3.org/2000/svg" width="192" height="37.518" viewBox="0 0 192 37.518">
  <g id="_192_branco" data-name="192_branco" transform="translate(-0.012 0.002)">
    <g id="Grupo_2" data-name="Grupo 2" transform="translate(157.782 -0.002)">
      <path id="Caminho_31" data-name="Caminho 31" d="M604.614,82.21a2.3,2.3,0,0,1-2.148-1.546,2.117,2.117,0,0,1,.865-2.646c1.388-.891,2.83-1.7,4.27-2.541q12.419-7.152,24.811-14.331a2.69,2.69,0,0,1,3.065-.183c1.493,1,1.362,2.934-.34,3.982-1.887,1.179-3.825,2.253-5.764,3.354L606.5,81.5A4.471,4.471,0,0,1,604.614,82.21Z" transform="translate(-602.282 -44.692)" fill="#e6565a"/>
      <path id="Caminho_32" data-name="Caminho 32" d="M626.879,42.056a2.766,2.766,0,0,1-1.756,2.41q-8.92,5.148-17.789,10.27c-.576.314-1.126.681-1.729.943a2.3,2.3,0,0,1-3.065-.891,2.231,2.231,0,0,1,.865-3.17c1.939-1.179,3.93-2.279,5.895-3.432,4.585-2.646,9.144-5.292,13.728-7.912C624.835,39.226,626.852,40.17,626.879,42.056Z" transform="translate(-602.198 -29.401)" fill="#e6565a"/>
      <path id="Caminho_33" data-name="Caminho 33" d="M604.851,29.514a2.274,2.274,0,0,1-2.41-1.651,2.147,2.147,0,0,1,1.074-2.672c2.384-1.441,4.821-2.8,7.231-4.218,1.022-.6,2.017-1.205,3.065-1.755a2.367,2.367,0,0,1,3.327.707,2.246,2.246,0,0,1-.917,3.249c-3.459,2.044-6.943,4.035-10.4,6.026A6.647,6.647,0,0,1,604.851,29.514Z" transform="translate(-602.283 -13.898)" fill="#e6565a"/>
      <path id="Caminho_34" data-name="Caminho 34" d="M607.988,2.409a2.262,2.262,0,0,1-2.358,2.253A2.331,2.331,0,0,1,603.3,2.357,2.422,2.422,0,0,1,605.761,0,2.37,2.37,0,0,1,607.988,2.409Z" transform="translate(-603.01 0.002)" fill="#e6585b"/>
    </g>
    <g id="Grupo_3" data-name="Grupo 3" transform="translate(0.012 9.554)">
      <path id="Caminho_35" data-name="Caminho 35" d="M411.526,51c0-1.362.026-2.7,0-4.061-.026-.838.314-1.153,1.153-1.205,2.777-.157,2.777-.183,2.777,2.568V50.53c.053,2.044-.393,1.886,1.86,1.86a13.8,13.8,0,0,0,2.332-.236,4.744,4.744,0,0,0,4.192-4.742,4.779,4.779,0,0,0-3.773-5.24,23.573,23.573,0,0,0-5.607-.341h-1.179c-2.017-.026-1.755.262-1.782-1.834,0-1.729.026-1.782,1.755-1.755a45.174,45.174,0,0,1,7.048.236c5.03.865,7.7,3.982,7.624,8.882-.079,4.48-3.3,7.912-8.017,8.515a73.051,73.051,0,0,1-7.572.183c-.655.026-.812-.262-.812-.865C411.552,53.805,411.526,52.39,411.526,51Z" transform="translate(-303.692 -37.763)" fill="#2d3549"/>
      <path id="Caminho_36" data-name="Caminho 36" d="M238.549,47.108c0-2.541.026-5.057-.026-7.6-.026-.943.314-1.31,1.284-1.31,3.354.052,6.733.026,10.087,0,.734,0,1.1.157,1.074,1-.079,3.2.367,2.541-2.489,2.62-1.755.026-3.484.026-5.24,0-.655,0-1,.21-.917.891v.262c.026,2.594-.236,2.122,2.148,2.148q1.768.039,3.537,0c.6,0,.812.21.865.838.21,2.8.236,2.8-2.568,2.8h-1.572c-2.436,0-2.934.655-2.41,3.065.131.655.55.55.969.55,2.175,0,4.375.026,6.55-.026.838-.026,1.153.236,1.127,1.1-.079,3.065.367,2.489-2.437,2.541-2.882.026-5.764-.026-8.646.026-1,.026-1.415-.288-1.389-1.336C238.6,52.164,238.549,49.649,238.549,47.108Z" transform="translate(-176.014 -37.747)" fill="#2d3549"/>
      <path id="Caminho_37" data-name="Caminho 37" d="M322.572,43.452c-.734,1.886-1.389,3.511-1.991,5.135-.76,1.991-1.572,3.982-2.279,6a1.852,1.852,0,0,1-2.1,1.467c-2.83-.052-2.83,0-1.729-2.594,2.017-4.637,4.035-9.275,6-13.938a1.816,1.816,0,0,1,2.043-1.336c1.022.052,1.86,0,2.384,1.258,2.148,5.161,4.4,10.244,6.655,15.353.419.943.393,1.284-.786,1.258-3.773-.1-2.882.5-4.27-2.856-1.127-2.725-2.2-5.5-3.3-8.253A12.75,12.75,0,0,0,322.572,43.452Z" transform="translate(-231.584 -37.733)" fill="#2d3549"/>
      <path id="Caminho_38" data-name="Caminho 38" d="M508.04,55.159a9.506,9.506,0,0,1-4.166-.943c-.812-.419-1.205-.838-.472-1.651a2.889,2.889,0,0,0,.445-.655c.576-1.153,1.31-1.6,2.594-.812a3.8,3.8,0,0,0,3.406.157,1.719,1.719,0,0,0,1.205-1.415,1.586,1.586,0,0,0-.943-1.6,8.43,8.43,0,0,0-1.31-.6c-.655-.236-1.336-.445-1.991-.655-2.934-1-4.166-2.437-4.113-4.873a5.477,5.477,0,0,1,4.428-5.318,9.333,9.333,0,0,1,6.026.393c.865.341,1.257.734.5,1.572a3.827,3.827,0,0,0-.576.865,1.438,1.438,0,0,1-2.2.786,3.557,3.557,0,0,0-2.7-.1,1.723,1.723,0,0,0-1.388,1.546,1.541,1.541,0,0,0,1.1,1.6c1.258.5,2.567.865,3.825,1.362a5.045,5.045,0,0,1,1.808,8.358A7.089,7.089,0,0,1,508.04,55.159Z" transform="translate(-370.994 -36.471)" fill="#2d3549"/>
      <path id="Caminho_39" data-name="Caminho 39" d="M164.053,45.321c0,1.886.052,3.747-.026,5.633-.026,1.127.341,1.572,1.493,1.546,2.044-.079,4.113,0,6.157-.026.812-.026,1.074.262,1.048,1.048-.079,3.17.393,2.541-2.515,2.594-2.882.026-5.764-.026-8.646.026-1.048,0-1.493-.367-1.467-1.441q.039-7.467,0-14.934c0-1.074.367-1.467,1.441-1.467,2.489,0,2.489-.026,2.489,2.463C164.053,42.256,164.053,43.776,164.053,45.321Z" transform="translate(-118.155 -37.821)" fill="#2d3549"/>
      <path id="Caminho_40" data-name="Caminho 40" d="M11.668,39.065C9.6,36.943,7,36.629,4.279,37.441A5.981,5.981,0,0,0,3.126,48.418a7.429,7.429,0,0,0,3.589.524c-1.127,1.7-2.1,3.2-3.065,4.69-.262.393-.576.838-.1,1.284.472.472,3.616.367,3.956-.183,1.729-2.777,3.8-5.371,5.135-8.358C13.737,43.807,13.763,41.213,11.668,39.065Zm-4.978,7a2.766,2.766,0,1,1,0-5.528,2.765,2.765,0,1,1,0,5.528Z" transform="translate(-0.012 -36.883)" fill="#2d3549"/>
      <path id="Caminho_41" data-name="Caminho 41" d="M91.144,42.235C90.673,39.144,88,37.1,84.542,37.1s-6.078,2.1-6.55,5.214a5.633,5.633,0,0,0,4.271,6.55,18.334,18.334,0,0,0,2.332.183c-.917,1.389-1.729,2.594-2.515,3.851-.341.576-1.127,1.1-.76,1.834.393.812,1.336.472,2.017.445.76,0,1.651.367,2.227-.6,1.493-2.41,3.065-4.768,4.533-7.2A7.34,7.34,0,0,0,91.144,42.235ZM84.7,46.113a2.766,2.766,0,1,1,2.777-2.83A2.727,2.727,0,0,1,84.7,46.113Z" transform="translate(-57.507 -36.935)" fill="#2d3549"/>
    </g>
  </g>
</svg>
