<svg xmlns="http://www.w3.org/2000/svg" width="512" height="100.048" viewBox="0 0 512 100.048">
  <g id="_512_branco" data-name="512_branco" transform="translate(-0.012 0.002)">
    <g id="Grupo_2" data-name="Grupo 2" transform="translate(420.731 -0.002)">
      <path id="Caminho_31" data-name="Caminho 31" d="M608.452,118.3c-2.585-.279-4.75-1.327-5.729-4.122a5.645,5.645,0,0,1,2.306-7.056c3.7-2.375,7.546-4.541,11.388-6.777q33.117-19.073,66.162-38.216c2.725-1.607,5.38-2.306,8.174-.489,3.982,2.655,3.633,7.825-.907,10.62-5.031,3.144-10.2,6.008-15.371,8.943L613.482,116.41A11.923,11.923,0,0,1,608.452,118.3Z" transform="translate(-602.232 -18.248)" fill="#e6565a"/>
      <path id="Caminho_32" data-name="Caminho 32" d="M668.013,45.75c0,3.284-2.167,4.96-4.682,6.428q-23.788,13.728-47.438,27.387c-1.537.838-3,1.816-4.611,2.515-3.284,1.467-6.568.419-8.174-2.375-1.747-3.074-.979-6.428,2.305-8.454,5.17-3.144,10.479-6.078,15.72-9.152,12.226-7.056,24.383-14.113,36.609-21.1C662.563,38.2,667.943,40.72,668.013,45.75Z" transform="translate(-602.198 -12.004)" fill="#e6565a"/>
      <path id="Caminho_33" data-name="Caminho 33" d="M609.081,47.315c-3.494-.07-5.519-1.537-6.428-4.4-.978-3.144.209-5.519,2.864-7.126,6.358-3.843,12.855-7.476,19.283-11.248,2.724-1.607,5.379-3.214,8.174-4.681,3.494-1.886,6.987-1.118,8.873,1.886,1.886,2.934,1.048,6.637-2.445,8.663-9.223,5.45-18.515,10.759-27.737,16.069A17.726,17.726,0,0,1,609.081,47.315Z" transform="translate(-602.233 -5.674)" fill="#e6565a"/>
      <path id="Caminho_34" data-name="Caminho 34" d="M615.805,6.427a6.031,6.031,0,0,1-6.288,6.008A6.217,6.217,0,0,1,603.3,6.287,6.459,6.459,0,0,1,609.867,0,6.321,6.321,0,0,1,615.805,6.427Z" transform="translate(-602.53 0.002)" fill="#e6585b"/>
    </g>
    <g id="Grupo_3" data-name="Grupo 3" transform="translate(0.012 25.48)">
      <path id="Caminho_35" data-name="Caminho 35" d="M411.57,72.3c0-3.633.07-7.2,0-10.829-.07-2.236.839-3.074,3.074-3.214,7.406-.419,7.406-.489,7.406,6.847v5.939c.14,5.449-1.048,5.03,4.961,4.96a36.791,36.791,0,0,0,6.218-.629c6.707-1.048,10.829-5.8,11.179-12.646.349-7.126-3.284-12.226-10.061-13.973-4.891-1.258-9.921-.838-14.951-.908h-3.144c-5.38-.07-4.681.7-4.751-4.891,0-4.611.07-4.751,4.681-4.681,6.288.07,12.576-.419,18.794.629,13.414,2.306,20.54,10.62,20.331,23.684-.21,11.947-8.8,21.1-21.379,22.706-6.707.838-13.484.349-20.191.489-1.746.07-2.166-.7-2.166-2.306C411.64,79.777,411.57,76,411.57,72.3Z" transform="translate(-124.012 -36.999)" fill="#2d3549"/>
      <path id="Caminho_36" data-name="Caminho 36" d="M238.638,61.954c0-6.777.07-13.484-.07-20.261-.07-2.515.838-3.493,3.423-3.493,8.943.14,17.955.07,26.9,0,1.956,0,2.934.419,2.864,2.655-.209,8.524.978,6.777-6.637,6.987-4.681.07-9.292.07-13.973,0-1.747,0-2.655.559-2.445,2.375v.7c.07,6.917-.629,5.659,5.729,5.729q4.716.1,9.432,0c1.607,0,2.166.559,2.306,2.236.559,7.476.629,7.476-6.847,7.476h-4.192c-6.5,0-7.825,1.747-6.428,8.174.35,1.747,1.467,1.467,2.585,1.467,5.8,0,11.668.07,17.466-.07,2.236-.07,3.074.629,3,2.934-.209,8.174.978,6.637-6.5,6.777-7.685.07-15.371-.07-23.056.07-2.655.07-3.773-.769-3.7-3.563C238.778,75.438,238.638,68.731,238.638,61.954Z" transform="translate(-71.878 -36.992)" fill="#2d3549"/>
      <path id="Caminho_37" data-name="Caminho 37" d="M337.2,52.237c-1.956,5.03-3.7,9.362-5.31,13.694-2.026,5.31-4.192,10.62-6.078,16-.978,2.864-2.446,3.982-5.589,3.912-7.545-.14-7.545,0-4.611-6.917,5.38-12.366,10.759-24.732,16-37.168,1.118-2.725,2.585-3.7,5.449-3.563,2.725.14,4.961,0,6.358,3.354,5.729,13.763,11.737,27.317,17.745,40.941,1.118,2.515,1.048,3.423-2.1,3.354-10.06-.279-7.685,1.327-11.388-7.615-3-7.266-5.869-14.672-8.8-22.008A33.991,33.991,0,0,0,337.2,52.237Z" transform="translate(-94.569 -36.986)" fill="#2d3549"/>
      <path id="Caminho_38" data-name="Caminho 38" d="M516.951,86.305a25.349,25.349,0,0,1-11.109-2.515c-2.166-1.118-3.214-2.236-1.258-4.4a7.7,7.7,0,0,0,1.188-1.747c1.537-3.074,3.493-4.262,6.917-2.166a10.124,10.124,0,0,0,9.082.419,4.583,4.583,0,0,0,3.214-3.773,4.228,4.228,0,0,0-2.515-4.262,22.486,22.486,0,0,0-3.493-1.607c-1.747-.629-3.563-1.188-5.31-1.747-7.825-2.655-11.109-6.5-10.969-12.995.139-6.917,4.471-12.3,11.807-14.183a24.887,24.887,0,0,1,16.069,1.048c2.305.908,3.353,1.956,1.327,4.192a10.2,10.2,0,0,0-1.537,2.306c-1.328,2.585-3,3.493-5.869,2.1a9.485,9.485,0,0,0-7.2-.279c-2.026.7-3.563,1.816-3.7,4.122a4.11,4.11,0,0,0,2.934,4.262c3.353,1.327,6.847,2.306,10.2,3.633,9.431,3.7,11.807,14.881,4.82,22.287C528.269,84.559,523.029,86.445,516.951,86.305Z" transform="translate(-151.493 -36.471)" fill="#2d3549"/>
      <path id="Caminho_39" data-name="Caminho 39" d="M170.648,57.024c0,5.03.14,9.991-.07,15.021-.07,3,.908,4.192,3.982,4.122,5.449-.21,10.969,0,16.418-.07,2.166-.07,2.865.7,2.795,2.795-.21,8.454,1.048,6.777-6.707,6.917-7.685.07-15.37-.07-23.055.07-2.795,0-3.982-.978-3.912-3.843q.105-19.912,0-39.823c0-2.864.978-3.912,3.843-3.912,6.637,0,6.637-.07,6.637,6.567C170.648,48.85,170.648,52.9,170.648,57.024Z" transform="translate(-48.252 -37.022)" fill="#2d3549"/>
      <path id="Caminho_40" data-name="Caminho 40" d="M31.094,42.458c-5.519-5.659-12.436-6.5-19.7-4.332A15.4,15.4,0,0,0,.073,52.1,15.376,15.376,0,0,0,8.318,67.4c2.795,1.4,5.8,1.467,9.572,1.4-3,4.541-5.589,8.524-8.174,12.506-.7,1.048-1.537,2.236-.279,3.423,1.258,1.258,9.641.978,10.55-.489,4.611-7.406,10.13-14.322,13.694-22.287C36.613,55.1,36.683,48.187,31.094,42.458ZM17.819,61.112c-4.611.07-7.755-3.074-7.685-7.545.07-4.332,3.214-7.266,7.685-7.2,4.4.07,7.545,3.074,7.545,7.336A7.192,7.192,0,0,1,17.819,61.112Z" transform="translate(-0.012 -36.639)" fill="#2d3549"/>
      <path id="Caminho_41" data-name="Caminho 41" d="M113.188,50.794C111.93,42.549,104.8,37.1,95.582,37.1S79.373,42.689,78.115,51,81.748,66.863,89.5,68.47a48.892,48.892,0,0,0,6.218.489c-2.445,3.7-4.611,6.917-6.707,10.27-.908,1.537-3,2.934-2.026,4.891,1.048,2.166,3.563,1.258,5.38,1.188,2.026,0,4.4.978,5.939-1.607,3.982-6.428,8.174-12.715,12.087-19.213A19.574,19.574,0,0,0,113.188,50.794ZM96,61.134c-4.611.14-7.895-2.864-7.895-7.336,0-4.262,3.074-7.336,7.546-7.406s7.685,2.934,7.755,7.2A7.271,7.271,0,0,1,96,61.134Z" transform="translate(-23.489 -36.66)" fill="#2d3549"/>
    </g>
  </g>
</svg>
